<svg width="132" height="26" viewBox="0 0 132 26" fill="none" xmlns="http://www.w3.org/2000/svg">
<path d="M19.9998 13.7217C19.8339 15.3283 19.1216 16.8293 17.9817 17.9742C16.8418 19.1191 15.3434 19.8386 13.7367 20.0124C13.7043 20.012 13.6722 20.0181 13.6422 20.0303C13.6123 20.0425 13.585 20.0606 13.5622 20.0834C13.5393 20.1063 13.5212 20.1335 13.509 20.1635C13.4968 20.1934 13.4907 20.2255 13.4911 20.2578V25.5092C13.4911 25.6394 13.4394 25.7642 13.3473 25.8563C13.2552 25.9483 13.1303 26 13 26C12.8697 26 12.7448 25.9483 12.6527 25.8563C12.5606 25.7642 12.5089 25.6394 12.5089 25.5092V23.6038C12.5042 23.5403 12.4768 23.4806 12.4318 23.4355C12.3867 23.3905 12.3269 23.3631 12.2633 23.3584C10.0791 23.1818 8.00724 22.3171 6.34601 20.8889C4.68479 19.4607 3.51985 17.5426 3.01889 15.4106C3.00024 15.3474 2.99451 15.2812 3.00202 15.2158C3.00954 15.1503 3.03016 15.0871 3.06265 15.0298C3.09514 14.9725 3.13884 14.9223 3.19114 14.8822C3.24344 14.8422 3.30327 14.813 3.36708 14.7966C3.43089 14.7801 3.49736 14.7766 3.56253 14.7864C3.62771 14.7961 3.69026 14.8188 3.74646 14.8532C3.80265 14.8876 3.85135 14.933 3.88964 14.9866C3.92793 15.0402 3.95503 15.1009 3.96933 15.1652C4.4147 17.0789 5.45319 18.8032 6.93677 20.0925C8.42036 21.3817 10.2733 22.17 12.2316 22.3451C12.2951 22.3769 12.3558 22.3451 12.4164 22.2845C12.4485 22.2664 12.4744 22.2391 12.4909 22.2062C12.5074 22.1733 12.5136 22.1362 12.5089 22.0997V20.2578C12.5093 20.2255 12.5032 20.1934 12.491 20.1635C12.4788 20.1335 12.4607 20.1063 12.4378 20.0834C12.415 20.0606 12.3877 20.0425 12.3578 20.0303C12.3278 20.0181 12.2957 20.012 12.2633 20.0124C10.6643 19.8344 9.17206 19.1224 8.02822 17.9916C6.88462 16.843 6.17068 15.3365 6.006 13.7246C5.99663 13.6656 5.96699 13.6118 5.92218 13.5722C5.87736 13.5327 5.82018 13.5101 5.76044 13.5081H0.505556C0.371474 13.5081 0.242884 13.4549 0.148074 13.3601C0.0532638 13.2654 0 13.1369 0 13.0029C0 12.8689 0.0532638 12.7404 0.148074 12.6456C0.242884 12.5509 0.371474 12.4977 0.505556 12.4977H2.50178C2.56135 12.4952 2.61825 12.4723 2.66295 12.4329C2.70766 12.3935 2.73745 12.3399 2.74733 12.2811C2.87842 10.1016 3.68878 8.01769 5.06479 6.32161C6.4408 4.62552 8.31346 3.4023 10.4202 2.82345C10.5478 2.79925 10.6798 2.82475 10.7892 2.89472C10.8985 2.96469 10.977 3.07383 11.0084 3.19975C11.0398 3.32567 11.0218 3.45883 10.9581 3.57191C10.8944 3.68499 10.7898 3.76943 10.6658 3.80791C8.78096 4.31582 7.10191 5.39925 5.86306 6.90692C4.62421 8.4146 3.88742 10.2712 3.75556 12.2176C3.74741 12.2535 3.74773 12.2907 3.7565 12.3265C3.76527 12.3622 3.78224 12.3953 3.80607 12.4234C3.8299 12.4514 3.85993 12.4735 3.89379 12.4879C3.92764 12.5023 3.96439 12.5086 4.00111 12.5063H5.74889C5.80862 12.5044 5.86581 12.4817 5.91062 12.4422C5.95544 12.4027 5.98507 12.3488 5.99444 12.2898C6.15803 10.6803 6.8701 9.17591 8.01137 8.02856C9.15264 6.88122 10.6538 6.16065 12.2633 5.98756C12.2957 5.98795 12.3278 5.98187 12.3578 5.96967C12.3877 5.95748 12.415 5.93942 12.4378 5.91655C12.4607 5.89369 12.4788 5.86648 12.491 5.83654C12.5032 5.80659 12.5093 5.77451 12.5089 5.74217V0.490784C12.5089 0.36062 12.5606 0.235787 12.6527 0.143747C12.7448 0.0517075 12.8697 0 13 0C13.1303 0 13.2552 0.0517075 13.3473 0.143747C13.4394 0.235787 13.4911 0.36062 13.4911 0.490784V6.44659C13.4944 6.51609 13.4831 6.5855 13.458 6.65039C13.4329 6.71528 13.3945 6.77421 13.3453 6.82341C13.2961 6.8726 13.2371 6.91098 13.1722 6.93607C13.1072 6.96117 13.0378 6.97243 12.9682 6.96913C7.62667 6.96913 4.95733 13.5052 8.73311 17.2814C12.5089 21.0575 18.954 18.3553 19.0464 13C19.0457 12.9353 19.0578 12.8712 19.0823 12.8113C19.1067 12.7514 19.1428 12.697 19.1886 12.6512C19.2343 12.6055 19.2888 12.5694 19.3487 12.545C19.4086 12.5206 19.4728 12.5084 19.5376 12.5092H25.4944C25.6285 12.5092 25.7571 12.5624 25.8519 12.6572C25.9467 12.7519 26 12.8804 26 13.0144C26 13.1484 25.9467 13.2769 25.8519 13.3717C25.7571 13.4664 25.6285 13.5197 25.4944 13.5197H23.53C23.469 13.5172 23.4095 13.5384 23.3638 13.5787C23.318 13.619 23.2896 13.6754 23.2844 13.7362C23.125 15.9293 22.2763 18.0161 20.8594 19.6985C19.4426 21.3809 17.53 22.5729 15.3949 23.1044C14.7507 23.2574 14.5282 22.2758 15.1782 22.1228C17.085 21.649 18.795 20.5894 20.0674 19.0931C21.3397 17.5968 22.1102 15.7394 22.2704 13.7824C22.2786 13.7465 22.2783 13.7093 22.2695 13.6735C22.2607 13.6378 22.2438 13.6047 22.2199 13.5766C22.1961 13.5486 22.1661 13.5265 22.1322 13.5121C22.0984 13.4977 22.0616 13.4914 22.0249 13.4937H20.2453C20.1856 13.4956 20.1284 13.5183 20.0836 13.5578C20.0388 13.5973 20.0091 13.6512 19.9998 13.7102V13.7217ZM23.9778 5.55741L20.4273 9.08528C20.3406 9.17938 20.2201 9.23541 20.0922 9.24117H17.7262C17.6616 9.24683 17.5993 9.2676 17.5442 9.3018L13.338 13.537C13.2434 13.6253 13.1182 13.6735 12.9888 13.6714C12.8594 13.6694 12.7358 13.6172 12.6441 13.5259C12.5524 13.4346 12.4997 13.3114 12.4971 13.182C12.4945 13.0527 12.5422 12.9274 12.6302 12.8326L16.8364 8.59449C16.8647 8.58032 16.8884 8.55842 16.9048 8.53135C16.9212 8.50427 16.9295 8.47311 16.9289 8.44148V6.07129C16.9283 6.003 16.9416 5.93531 16.9679 5.87229C16.9942 5.80928 17.033 5.75224 17.082 5.70464L20.6122 2.17966C20.6804 2.10601 20.7692 2.05459 20.867 2.03208C20.9648 2.00958 21.0672 2.01704 21.1607 2.05349C21.2542 2.08994 21.3346 2.15369 21.3914 2.23645C21.4481 2.3192 21.4786 2.41711 21.4789 2.51743V4.4517C21.483 4.51544 21.5102 4.57552 21.5553 4.62068C21.6005 4.66585 21.6607 4.69301 21.7244 4.69709H23.6282C23.7298 4.69443 23.8298 4.7224 23.9152 4.77736C24.0006 4.83231 24.0674 4.9117 24.107 5.00518C24.1466 5.09866 24.1571 5.2019 24.1372 5.30143C24.1172 5.40096 24.0677 5.49217 23.9951 5.56318L23.9778 5.55741ZM19.9333 8.15567L21.9902 6.10016C22.026 6.06716 22.0512 6.02441 22.0629 5.97719C22.0745 5.92998 22.072 5.8804 22.0557 5.83459C22.0394 5.78878 22.01 5.74876 21.9711 5.7195C21.9323 5.69024 21.8857 5.67303 21.8371 5.67H20.9704C20.8363 5.67313 20.7063 5.62343 20.6084 5.53161C20.5106 5.4398 20.4528 5.31323 20.4476 5.17921V4.33911C20.4473 4.28939 20.4325 4.24083 20.4049 4.19946C20.3773 4.15808 20.3382 4.1257 20.2923 4.10634C20.2465 4.08698 20.196 4.08148 20.1471 4.09052C20.0982 4.09957 20.053 4.12276 20.0171 4.15723L17.9949 6.21275C17.9409 6.25975 17.9077 6.32615 17.9024 6.39751V7.994C17.9021 8.02634 17.9081 8.05842 17.9203 8.08837C17.9325 8.11832 17.9506 8.14552 17.9735 8.16839C17.9964 8.19125 18.0236 8.20931 18.0536 8.22151C18.0835 8.2337 18.1156 8.23978 18.148 8.2394H19.7744C19.838 8.2394 19.8987 8.2394 19.9276 8.17588L19.9333 8.15567ZM17.1716 13.0058C17.1727 13.8312 16.9288 14.6384 16.4706 15.3253C16.0125 16.0121 15.3608 16.5477 14.5979 16.8643C13.8351 17.1808 12.9954 17.2641 12.1852 17.1035C11.375 16.943 10.6306 16.5459 10.0464 15.9624C9.46209 15.3789 9.06417 14.6353 8.90295 13.8258C8.74174 13.0162 8.82448 12.177 9.14071 11.4145C9.45693 10.6519 9.99243 10.0002 10.6794 9.54194C11.3664 9.08364 12.174 8.83932 13 8.83989C13.1241 8.84939 13.2401 8.90537 13.3247 8.99664C13.4093 9.0879 13.4563 9.20771 13.4563 9.33211C13.4563 9.45651 13.4093 9.57632 13.3247 9.66759C13.2401 9.75885 13.1241 9.81483 13 9.82434C12.1572 9.82434 11.3489 10.1589 10.753 10.7545C10.157 11.35 9.82222 12.1578 9.82222 13C9.82222 13.8422 10.157 14.65 10.753 15.2455C11.3489 15.8411 12.1572 16.1757 13 16.1757C14.8431 16.1757 16.0709 14.7957 16.1604 13C16.1576 12.9303 16.1691 12.8608 16.1942 12.7958C16.2193 12.7308 16.2576 12.6716 16.3066 12.622C16.3556 12.5724 16.4143 12.5334 16.4791 12.5075C16.5438 12.4815 16.6132 12.4691 16.6829 12.4711C16.7527 12.4731 16.8212 12.4894 16.8844 12.519C16.9475 12.5486 17.0039 12.5909 17.05 12.6432C17.0961 12.6955 17.131 12.7568 17.1524 12.8231C17.1738 12.8895 17.1813 12.9595 17.1744 13.0289L17.1716 13.0058Z" fill="#4D4C50"/>
<path d="M34 18.994V0H37.6825L45.2032 12.2735V0H48.8339V18.994H45.2032L37.6566 6.8503V18.994H34Z" fill="#4D4C50"/>
<path d="M52.0168 12.0399C52.0168 10.8463 52.086 9.85163 52.2243 9.05589C52.3799 8.24285 52.596 7.57685 52.8726 7.05789C53.1492 6.52162 53.5382 6.1151 54.0396 5.83832C54.541 5.56154 55.0942 5.37126 55.6993 5.26747C56.3218 5.16367 57.0998 5.11178 58.0334 5.11178C58.6558 5.11178 59.1831 5.12908 59.6153 5.16367C60.0475 5.18097 60.4797 5.23287 60.912 5.31936C61.3615 5.38856 61.7245 5.501 62.0012 5.65669C62.2778 5.79508 62.5458 5.99401 62.8051 6.25349C63.0644 6.49568 63.2633 6.7984 63.4016 7.16168C63.5572 7.50765 63.6695 7.93147 63.7387 8.43314C63.8251 8.9175 63.8684 9.47971 63.8684 10.1198C63.8684 11.3307 63.5485 12.2129 62.9088 12.7665C62.2691 13.32 61.3096 13.5968 60.0302 13.5968H55.6475C55.6475 14.3925 55.7599 14.9894 55.9846 15.3872C56.2267 15.7678 56.5206 16.0013 56.8664 16.0878C57.2294 16.1743 57.7913 16.2176 58.552 16.2176C60.6786 16.2176 62.3642 16.1224 63.609 15.9321V18.3972C62.3124 18.8816 59.9611 19.1238 56.5552 19.1238C55.6734 19.1238 54.9386 18.994 54.3508 18.7345C53.7803 18.475 53.3221 18.0512 52.9763 17.4631C52.6306 16.8749 52.3799 16.1484 52.2243 15.2834C52.086 14.4185 52.0168 13.3373 52.0168 12.0399ZM55.6475 10.976H59.0966C59.8573 10.976 60.2377 10.6301 60.2377 9.93812C60.2377 9.07319 60.1167 8.51963 59.8746 8.27745C59.6499 8.01796 59.1053 7.88822 58.2408 7.88822C57.6876 7.88822 57.2726 7.91417 56.996 7.96607C56.7367 8.00067 56.4774 8.12176 56.218 8.32934C55.976 8.51963 55.8117 8.82236 55.7253 9.23753C55.6561 9.6527 55.6302 10.2322 55.6475 10.976Z" fill="#4D4C50"/>
<path d="M66.1866 18.994L70.9583 12.0918L66.1866 5.21557H70.5952L73.1108 9.34132L75.7041 5.21557H80.0869L75.2632 12.1697L79.8794 18.994H75.7041L73.1367 14.9202L70.5952 18.994H66.1866Z" fill="#4D4C50"/>
<path d="M82.5574 3.16567V0.882237C82.5574 0.432469 82.7649 0.207585 83.1798 0.207585H85.9028C86.2832 0.207585 86.4734 0.432469 86.4734 0.882237V3.16567C86.4734 3.35596 86.4215 3.50299 86.3178 3.60679C86.2313 3.71058 86.093 3.76248 85.9028 3.76248H83.1798C83.0588 3.76248 82.9464 3.74518 82.8427 3.71058C82.7562 3.65868 82.6871 3.58949 82.6352 3.503C82.5833 3.3992 82.5574 3.28676 82.5574 3.16567ZM82.6871 18.994V5.21557H86.3178V18.994H82.6871Z" fill="#4D4C50"/>
<path d="M89.4184 16.3473C89.4184 15.7591 89.5481 15.2488 89.8074 14.8164C90.084 14.3666 90.4903 14.0552 91.0263 13.8822C90.888 13.7957 90.7583 13.692 90.6373 13.5709C90.5163 13.4498 90.4039 13.32 90.3001 13.1816C90.2137 13.0432 90.1273 12.8962 90.0408 12.7405C89.9717 12.5675 89.9025 12.3945 89.8334 12.2216C89.7815 12.0486 89.7296 11.8756 89.6778 11.7026C89.6432 11.5123 89.6086 11.3307 89.574 11.1577C89.5567 10.9674 89.5394 10.7858 89.5222 10.6128C89.5222 10.4225 89.5222 10.2409 89.5222 10.0679C89.5222 6.7984 91.1127 5.16367 94.2939 5.16367H102.67V7.34331L101.14 7.81038C101.14 7.81038 101.166 7.87957 101.218 8.01797C101.27 8.13906 101.296 8.2169 101.296 8.2515C101.313 8.2688 101.339 8.33799 101.374 8.45908C101.426 8.58017 101.46 8.67532 101.477 8.74451C101.495 8.81371 101.512 8.9175 101.529 9.05589C101.564 9.19428 101.581 9.33267 101.581 9.47106C101.598 9.59215 101.616 9.74784 101.633 9.93812C101.65 10.1111 101.659 10.3014 101.659 10.509C101.659 10.7685 101.642 11.0279 101.607 11.2874C101.573 11.5296 101.521 11.7891 101.451 12.0659C101.382 12.3426 101.287 12.6021 101.166 12.8443C101.063 13.0865 100.924 13.3287 100.751 13.5709C100.578 13.7957 100.371 14.0033 100.129 14.1936C99.8869 14.3839 99.6102 14.5482 99.299 14.6866C99.0051 14.825 98.6507 14.9375 98.2358 15.024C97.8381 15.0931 97.4059 15.1277 96.9391 15.1277H93.7493C93.5591 15.1277 93.4035 15.1364 93.2825 15.1537C93.1615 15.171 93.0318 15.2315 92.8935 15.3353C92.7725 15.4218 92.712 15.5516 92.712 15.7246C92.712 16.0013 92.7984 16.1916 92.9713 16.2954C93.1615 16.3819 93.4208 16.4251 93.7493 16.4251H97.9764C99.2558 16.4251 100.25 16.7711 100.959 17.4631C101.685 18.1377 102.048 19.1583 102.048 20.525V22.004C102.048 22.2635 102.031 22.5057 101.996 22.7305C101.962 22.9727 101.91 23.2149 101.841 23.4571C101.789 23.6993 101.702 23.9242 101.581 24.1317C101.46 24.3566 101.322 24.5642 101.166 24.7545C101.011 24.9448 100.82 25.1091 100.596 25.2475C100.371 25.4032 100.12 25.5329 99.8436 25.6367C99.567 25.7578 99.2472 25.8443 98.8841 25.8962C98.5383 25.9654 98.158 26 97.743 26H93.853C93.0059 26 92.2624 25.8616 91.6228 25.5848C91.0004 25.3081 90.499 24.8583 90.1186 24.2355C89.7383 23.6301 89.5481 22.8862 89.5481 22.004V20.2655L90.7669 18.994C90.5768 18.8902 90.4039 18.7605 90.2483 18.6048C90.0927 18.4318 89.9457 18.2329 89.8074 18.008C89.6864 17.7831 89.5913 17.5323 89.5222 17.2555C89.453 16.9614 89.4184 16.6587 89.4184 16.3473ZM93.2047 21.5629C93.2047 21.8916 93.2393 22.1597 93.3084 22.3673C93.3949 22.5749 93.5159 22.7305 93.6715 22.8343C93.8444 22.9381 94.0086 23.0073 94.1642 23.0419C94.3371 23.0765 94.5619 23.0938 94.8385 23.0938H96.965C97.2935 23.0938 97.5528 23.0506 97.743 22.9641C97.9505 22.8949 98.0975 22.7911 98.1839 22.6527C98.2876 22.5143 98.3568 22.3673 98.3914 22.2116C98.4259 22.0559 98.4432 21.8656 98.4432 21.6407V20.6287C98.4432 20.525 98.4346 20.4298 98.4173 20.3433C98.4 20.2568 98.3827 20.1703 98.3654 20.0838C98.3481 20.0146 98.3136 19.9454 98.2617 19.8762C98.2271 19.8244 98.1839 19.7638 98.132 19.6946C98.0802 19.6427 98.0197 19.5995 97.9505 19.5649C97.8813 19.5303 97.8035 19.4957 97.7171 19.4611C97.6306 19.4265 97.5356 19.4005 97.4318 19.3832C97.3281 19.3659 97.2157 19.3573 97.0947 19.3573H94.2939L93.2047 19.2794V21.5629ZM93.1528 10.0679C93.1528 11.4864 93.7061 12.1956 94.8126 12.1956H96.2648C97.4578 12.1956 98.0456 11.4864 98.0283 10.0679C98.011 9.34132 97.864 8.83101 97.5874 8.53693C97.3281 8.22555 96.8786 8.06986 96.2389 8.06986H94.8644C94.5014 8.06986 94.1988 8.13041 93.9568 8.2515C93.732 8.35529 93.5591 8.51098 93.4381 8.71856C93.3344 8.90885 93.2566 9.10778 93.2047 9.31537C93.1701 9.52295 93.1528 9.77379 93.1528 10.0679Z" fill="#4D4C50"/>
<path d="M105.019 12.0399C105.019 10.8463 105.088 9.85163 105.227 9.05589C105.382 8.24285 105.598 7.57685 105.875 7.05789C106.152 6.52162 106.541 6.1151 107.042 5.83832C107.543 5.56154 108.097 5.37126 108.702 5.26747C109.324 5.16367 110.102 5.11178 111.036 5.11178C111.658 5.11178 112.185 5.12908 112.618 5.16367C113.05 5.18097 113.482 5.23287 113.914 5.31936C114.364 5.38856 114.727 5.501 115.004 5.65669C115.28 5.79508 115.548 5.99401 115.807 6.25349C116.067 6.49568 116.266 6.7984 116.404 7.16168C116.56 7.50765 116.672 7.93147 116.741 8.43314C116.827 8.9175 116.871 9.47971 116.871 10.1198C116.871 11.3307 116.551 12.2129 115.911 12.7665C115.271 13.32 114.312 13.5968 113.033 13.5968H108.65C108.65 14.3925 108.762 14.9894 108.987 15.3872C109.229 15.7678 109.523 16.0013 109.869 16.0878C110.232 16.1743 110.794 16.2176 111.554 16.2176C113.681 16.2176 115.367 16.1224 116.611 15.9321V18.3972C115.315 18.8816 112.963 19.1238 109.558 19.1238C108.676 19.1238 107.941 18.994 107.353 18.7345C106.783 18.475 106.324 18.0512 105.979 17.4631C105.633 16.8749 105.382 16.1484 105.227 15.2834C105.088 14.4185 105.019 13.3373 105.019 12.0399ZM108.65 10.976H112.099C112.86 10.976 113.24 10.6301 113.24 9.93812C113.24 9.07319 113.119 8.51963 112.877 8.27745C112.652 8.01796 112.108 7.88822 111.243 7.88822C110.69 7.88822 110.275 7.91417 109.998 7.96607C109.739 8.00067 109.48 8.12176 109.22 8.32934C108.978 8.51963 108.814 8.82236 108.728 9.23753C108.658 9.6527 108.633 10.2322 108.65 10.976Z" fill="#4D4C50"/>
<path d="M119.889 18.994V5.21557H122.794L123.52 6.69461C123.952 6.36594 124.255 6.1497 124.427 6.04591C124.618 5.92482 124.912 5.76048 125.309 5.5529C125.707 5.32801 126.104 5.18097 126.502 5.11178C126.917 5.02528 127.375 4.98204 127.877 4.98204C130.626 4.98204 132 6.59082 132 9.80838V18.994H128.369V9.75649C128.369 9.09914 128.231 8.62342 127.954 8.32934C127.695 8.03526 127.323 7.88822 126.839 7.88822C126.355 7.88822 125.923 7.94012 125.543 8.04391C125.18 8.13041 124.842 8.26015 124.531 8.43314C124.237 8.58882 123.9 8.80506 123.52 9.08184V18.994H119.889Z" fill="#4D4C50"/>
</svg>
