<svg width="13" height="12" viewBox="0 0 13 12" fill="none" xmlns="http://www.w3.org/2000/svg">
<path d="M8.60019 3.60012C8.08923 3.59837 7.58293 3.69738 7.11028 3.8915C6.63762 4.08563 6.20788 4.37104 5.84564 4.73142C5.48341 5.0918 5.19578 5.52007 4.99924 5.99172C4.80269 6.46337 4.70107 6.96915 4.7002 7.48012V11.4001C4.7002 11.5593 4.76341 11.7119 4.87593 11.8244C4.98845 11.9369 5.14107 12.0001 5.3002 12.0001H6.7002C6.85933 12.0001 7.01194 11.9369 7.12446 11.8244C7.23698 11.7119 7.30019 11.5593 7.30019 11.4001V7.48012C7.30006 7.29839 7.33823 7.11867 7.41222 6.95268C7.4862 6.78668 7.59433 6.63815 7.72957 6.51675C7.86481 6.39535 8.02411 6.30381 8.1971 6.24811C8.37008 6.19241 8.55286 6.17378 8.73353 6.19345C9.05753 6.23426 9.35529 6.39256 9.57034 6.63833C9.78538 6.88409 9.90276 7.20023 9.9002 7.52679V11.4001C9.9002 11.5593 9.96341 11.7119 10.0759 11.8244C10.1885 11.9369 10.3411 12.0001 10.5002 12.0001H11.9002C12.0593 12.0001 12.2119 11.9369 12.3245 11.8244C12.437 11.7119 12.5002 11.5593 12.5002 11.4001V7.48012C12.4993 6.96915 12.3977 6.46337 12.2012 5.99172C12.0046 5.52007 11.717 5.0918 11.3547 4.73142C10.9925 4.37104 10.5628 4.08563 10.0901 3.8915C9.61746 3.69738 9.11116 3.59837 8.60019 3.60012Z" fill="#6140FF"/>
<path d="M2.9 4.2002H1.1C0.768629 4.2002 0.5 4.46882 0.5 4.8002V11.4002C0.5 11.7316 0.768629 12.0002 1.1 12.0002H2.9C3.23137 12.0002 3.5 11.7316 3.5 11.4002V4.8002C3.5 4.46882 3.23137 4.2002 2.9 4.2002Z" fill="#6140FF"/>
<path d="M2 3C2.82843 3 3.5 2.32843 3.5 1.5C3.5 0.671573 2.82843 0 2 0C1.17157 0 0.5 0.671573 0.5 1.5C0.5 2.32843 1.17157 3 2 3Z" fill="#6140FF"/>
</svg>
