<svg width="13" height="12" viewBox="0 0 13 12" fill="none" xmlns="http://www.w3.org/2000/svg">
<path d="M3.88621 11.3335C4.872 11.3665 5.85441 11.2015 6.77537 10.8484C7.69632 10.4952 8.53714 9.96105 9.24814 9.2774C9.95913 8.59375 10.5259 7.77452 10.9149 6.86811C11.3038 5.96171 11.5072 4.98652 11.5129 4.00019C11.9646 3.44113 12.3001 2.79741 12.4995 2.10686C12.5144 2.0523 12.5132 1.9946 12.4961 1.94071C12.4789 1.88682 12.4466 1.83903 12.4029 1.8031C12.3592 1.76718 12.3061 1.74464 12.2499 1.73821C12.1937 1.73178 12.1369 1.74173 12.0862 1.76686C11.8499 1.88063 11.5838 1.91738 11.3254 1.87193C11.0671 1.82648 10.8295 1.70113 10.6462 1.51353C10.4122 1.25724 10.1291 1.05055 9.8137 0.905677C9.49832 0.760808 9.15707 0.680717 8.81017 0.670148C8.46327 0.659579 8.11778 0.718749 7.79417 0.84415C7.47055 0.969551 7.1754 1.15863 6.92621 1.40019C6.585 1.73063 6.33509 2.14372 6.20075 2.59931C6.06641 3.0549 6.05221 3.53749 6.15954 4.00019C3.92621 4.13353 2.39287 3.07353 1.16621 1.62019C1.12935 1.57846 1.08115 1.54836 1.02747 1.53357C0.973801 1.51878 0.916981 1.51994 0.863956 1.53691C0.81093 1.55388 0.763993 1.58592 0.728877 1.62912C0.69376 1.67233 0.671983 1.72482 0.666206 1.78019C0.432519 3.07647 0.601092 4.41322 1.14928 5.61091C1.69748 6.80859 2.59904 7.80984 3.73287 8.48019C2.97263 9.35208 1.90501 9.89663 0.752873 10.0002C0.691147 10.0104 0.634167 10.0397 0.589907 10.0839C0.545647 10.1282 0.516321 10.1851 0.506035 10.2468C0.495749 10.3085 0.505017 10.3719 0.532542 10.4281C0.560066 10.4843 0.60447 10.5305 0.659539 10.5602C1.66189 11.0611 2.76569 11.3257 3.88621 11.3335" fill="#6140FF"/>
</svg>
