<svg width="6" height="8" viewBox="0 0 6 8" fill="none" xmlns="http://www.w3.org/2000/svg">
<path d="M5.08333 0.458333C5.08333 0.403079 5.06138 0.350089 5.02231 0.311019C4.98324 0.271949 4.93025 0.249999 4.875 0.249999H3.83333C3.3088 0.223871 2.79525 0.406412 2.40488 0.757741C2.01452 1.10907 1.77908 1.60062 1.75 2.125V3.25H0.708333C0.65308 3.25 0.60009 3.27195 0.561019 3.31102C0.521949 3.35009 0.5 3.40308 0.5 3.45833V4.54167C0.5 4.59692 0.521949 4.64991 0.561019 4.68898C0.60009 4.72805 0.65308 4.75 0.708333 4.75H1.75V7.54167C1.75 7.59692 1.77195 7.64991 1.81102 7.68898C1.85009 7.72805 1.90308 7.75 1.95833 7.75H3.20833C3.26359 7.75 3.31658 7.72805 3.35565 7.68898C3.39472 7.64991 3.41667 7.59692 3.41667 7.54167V4.75H4.50833C4.55466 4.75067 4.59989 4.73587 4.63687 4.70795C4.67384 4.68003 4.70046 4.64057 4.7125 4.59583L5.0125 3.5125C5.02079 3.48172 5.0219 3.44944 5.01576 3.41816C5.00961 3.38688 4.99637 3.35743 4.97705 3.33207C4.95773 3.30671 4.93285 3.28613 4.90432 3.2719C4.87579 3.25767 4.84438 3.25018 4.8125 3.25H3.41667V2.125C3.42703 2.02186 3.47546 1.9263 3.55251 1.85695C3.62956 1.78761 3.72968 1.74948 3.83333 1.75H4.875C4.93025 1.75 4.98324 1.72805 5.02231 1.68898C5.06138 1.64991 5.08333 1.59692 5.08333 1.54167V0.458333Z" fill="white"/>
</svg>
