<svg width="8" height="8" viewBox="0 0 8 8" fill="none" xmlns="http://www.w3.org/2000/svg">
<path d="M5.3125 2.50001C4.99315 2.49892 4.67671 2.5608 4.3813 2.68213C4.08589 2.80346 3.8173 2.98184 3.5909 3.20708C3.36451 3.43231 3.18474 3.69998 3.0619 3.99476C2.93906 4.28955 2.87555 4.60566 2.875 4.92501V7.37501C2.875 7.47447 2.91451 7.56985 2.98484 7.64018C3.05516 7.71051 3.15054 7.75001 3.25 7.75001H4.125C4.22446 7.75001 4.31984 7.71051 4.39016 7.64018C4.46049 7.56985 4.5 7.47447 4.5 7.37501V4.92501C4.49992 4.81143 4.52377 4.69911 4.57001 4.59536C4.61625 4.49162 4.68384 4.39878 4.76836 4.32291C4.85288 4.24703 4.95245 4.18982 5.06056 4.15501C5.16868 4.12019 5.28292 4.10855 5.39583 4.12085C5.59834 4.14635 5.78444 4.24529 5.91884 4.39889C6.05324 4.5525 6.1266 4.75008 6.125 4.95418V7.37501C6.125 7.47447 6.16451 7.56985 6.23483 7.64018C6.30516 7.71051 6.40054 7.75001 6.5 7.75001H7.375C7.47446 7.75001 7.56984 7.71051 7.64017 7.64018C7.71049 7.56985 7.75 7.47447 7.75 7.37501V4.92501C7.74945 4.60566 7.68594 4.28955 7.5631 3.99476C7.44026 3.69998 7.26049 3.43231 7.0341 3.20708C6.8077 2.98184 6.53911 2.80346 6.2437 2.68213C5.94829 2.5608 5.63185 2.49892 5.3125 2.50001Z" fill="white"/>
<path d="M1.75 2.875H0.625C0.417893 2.875 0.25 3.04289 0.25 3.25V7.375C0.25 7.58211 0.417893 7.75 0.625 7.75H1.75C1.95711 7.75 2.125 7.58211 2.125 7.375V3.25C2.125 3.04289 1.95711 2.875 1.75 2.875Z" fill="white"/>
<path d="M1.1875 2.125C1.70527 2.125 2.125 1.70527 2.125 1.1875C2.125 0.669733 1.70527 0.25 1.1875 0.25C0.669733 0.25 0.25 0.669733 0.25 1.1875C0.25 1.70527 0.669733 2.125 1.1875 2.125Z" fill="white"/>
</svg>
