<svg width="14" height="14" viewBox="0 0 14 14" fill="none" xmlns="http://www.w3.org/2000/svg">
<path d="M8.90501 10.388C10.1471 10.2409 11.3676 9.94779 12.541 9.51467C11.5473 8.41387 10.9981 6.983 11.0003 5.5V5.03333V5C11.0003 3.93913 10.5789 2.92172 9.82877 2.17157C9.07862 1.42143 8.06121 1 7.00034 1C5.93947 1 4.92206 1.42143 4.17191 2.17157C3.42177 2.92172 3.00034 3.93913 3.00034 5V5.5C3.00235 6.98309 2.453 8.41397 1.45901 9.51467C2.61434 9.94133 3.83234 10.238 5.09567 10.388M8.90501 10.388C7.63967 10.5381 6.36102 10.5381 5.09567 10.388M8.90501 10.388C9.00108 10.6879 9.02497 11.0063 8.97473 11.3171C8.9245 11.628 8.80156 11.9227 8.61593 12.1771C8.43029 12.4314 8.18721 12.6384 7.90647 12.7811C7.62573 12.9238 7.31526 12.9981 7.00034 12.9981C6.68542 12.9981 6.37496 12.9238 6.09421 12.7811C5.81347 12.6384 5.57039 12.4314 5.38476 12.1771C5.19912 11.9227 5.07618 11.628 5.02595 11.3171C4.97572 11.0063 4.99961 10.6879 5.09567 10.388M1.08301 4C1.27099 2.88331 1.7722 1.84296 2.52834 1M11.4723 1C12.2285 1.84296 12.7297 2.88331 12.9177 4" stroke="#6140FF" stroke-width="1.5" stroke-linecap="round" stroke-linejoin="round"/>
</svg>
