<svg width="14" height="14" viewBox="0 0 14 14" fill="none" xmlns="http://www.w3.org/2000/svg">
<path d="M0.875 5.0575V10.0625C0.875 10.5266 1.05937 10.9717 1.38756 11.2999C1.71575 11.6281 2.16087 11.8125 2.625 11.8125H11.375C11.8391 11.8125 12.2842 11.6281 12.6124 11.2999C12.9406 10.9717 13.125 10.5266 13.125 10.0625V5.0575L7.917 8.26175C7.64122 8.43141 7.32379 8.52124 7 8.52124C6.67621 8.52124 6.35878 8.43141 6.083 8.26175L0.875 5.0575Z" fill="#D37302"/>
<path d="M13.125 4.02967V3.9375C13.125 3.47337 12.9406 3.02825 12.6124 2.70006C12.2842 2.37187 11.8391 2.1875 11.375 2.1875H2.625C2.16087 2.1875 1.71575 2.37187 1.38756 2.70006C1.05937 3.02825 0.875 3.47337 0.875 3.9375V4.02967L6.5415 7.51683C6.67939 7.60167 6.83811 7.64658 7 7.64658C7.16189 7.64658 7.32061 7.60167 7.4585 7.51683L13.125 4.02967Z" fill="#D37302"/>
</svg>
