<svg width="91" height="71" viewBox="0 0 91 71" fill="none" xmlns="http://www.w3.org/2000/svg">
<path d="M83.4961 0L90.9668 6.5918C86.1816 10.791 82.2754 14.8438 79.248 18.75C76.3184 22.5586 74.4629 25.4395 73.6816 27.3926C72.9004 29.3457 72.168 31.6895 71.4844 34.4238L72.0703 35.3027C78.6133 35.3027 83.3984 36.7188 86.4258 39.5508C89.4531 42.3828 90.9668 46.7773 90.9668 52.7344C90.9668 57.3242 89.3066 61.4746 85.9863 65.1855C82.7637 68.8965 78.7109 70.752 73.8281 70.752C68.2617 70.752 63.623 69.1895 59.9121 66.0645C56.2012 62.9395 54.3457 57.9102 54.3457 50.9766C54.3457 41.7969 57.1777 32.3242 62.8418 22.5586C68.6035 12.6953 75.4883 5.17578 83.4961 0ZM29.1504 0L36.6211 6.5918C31.8359 10.791 27.9785 14.7949 25.0488 18.6035C22.1191 22.4121 20.2148 25.3418 19.3359 27.3926C18.5547 29.4434 17.8223 31.7871 17.1387 34.4238L17.7246 35.3027C24.2676 35.3027 29.0527 36.7188 32.0801 39.5508C35.1074 42.3828 36.6211 46.7773 36.6211 52.7344C36.6211 57.3242 34.9609 61.4746 31.6406 65.1855C28.418 68.8965 24.3652 70.752 19.4824 70.752C13.916 70.752 9.27734 69.1895 5.56641 66.0645C1.85547 62.9395 0 57.9102 0 50.9766C0 41.7969 2.83203 32.3242 8.49609 22.5586C14.2578 12.6953 21.1426 5.17578 29.1504 0Z" fill="#D37302"/>
</svg>
