<svg width="8" height="8" viewBox="0 0 8 8" fill="none" xmlns="http://www.w3.org/2000/svg">
<path d="M2.36711 7.33333C2.98323 7.35395 3.59724 7.25085 4.17284 7.03012C4.74843 6.8094 5.27395 6.47553 5.71832 6.04825C6.16269 5.62097 6.5169 5.10895 6.76002 4.54245C7.00313 3.97595 7.13022 3.36646 7.13378 2.75C7.41613 2.40059 7.62579 1.99826 7.75044 1.56666C7.75975 1.53257 7.759 1.4965 7.74828 1.46282C7.73757 1.42914 7.71734 1.39927 7.69004 1.37682C7.66275 1.35436 7.62954 1.34028 7.59442 1.33626C7.55931 1.33224 7.52378 1.33846 7.49211 1.35416C7.34439 1.42527 7.17809 1.44824 7.01663 1.41983C6.85517 1.39143 6.70669 1.31308 6.59211 1.19583C6.44584 1.03566 6.26891 0.906469 6.0718 0.815926C5.87468 0.725383 5.6614 0.675326 5.44459 0.66872C5.22778 0.662115 5.01185 0.699096 4.80959 0.777472C4.60733 0.855848 4.42286 0.974024 4.26711 1.125C4.05386 1.33152 3.89766 1.5897 3.8137 1.87445C3.72974 2.15919 3.72086 2.46081 3.78794 2.75C2.39211 2.83333 1.43378 2.17083 0.667111 1.2625C0.644079 1.23642 0.61395 1.2176 0.580404 1.20836C0.546858 1.19912 0.511346 1.19984 0.478205 1.21045C0.445064 1.22105 0.415728 1.24108 0.39378 1.26808C0.371832 1.29508 0.358222 1.32789 0.354611 1.3625C0.208557 2.17267 0.313915 3.00814 0.656535 3.75669C0.999156 4.50524 1.56263 5.13103 2.27128 5.55C1.79613 6.09493 1.12886 6.43527 0.408778 6.5C0.3702 6.5064 0.334587 6.52469 0.306924 6.55234C0.279262 6.57998 0.260933 6.61557 0.254504 6.65415C0.248076 6.69272 0.253868 6.73234 0.271071 6.76746C0.288274 6.80257 0.316026 6.83143 0.350444 6.85C0.976911 7.16307 1.66679 7.32841 2.36711 7.33333Z" fill="white"/>
</svg>
