<svg width="36" height="36" viewBox="0 0 36 36" fill="none" xmlns="http://www.w3.org/2000/svg">
<path d="M11.2509 28.4745C12.9209 28.4745 14.5284 28.0701 15.965 27.3119L18.5552 31.7611C19.9149 34.2597 23.614 34.7284 25.5705 32.669C27.6353 30.7144 27.1574 27.0175 24.6624 25.6538C24.6625 25.6538 20.202 23.0571 20.202 23.0571C21.475 20.6209 21.7403 17.712 20.8238 15.0492C20.6673 14.4228 19.7117 14.5407 19.7164 15.194C21.8056 21.0324 17.5182 27.3936 11.2508 27.3494C6.41509 27.4491 2.15055 23.1858 2.25097 18.3494C2.15817 12.203 8.57906 7.73007 14.3216 9.88958C15.0171 10.1344 15.3971 9.09311 14.705 8.83204C8.24644 6.40275 1.02021 11.435 1.12596 18.3496C1.01362 23.7898 5.80998 28.5872 11.2509 28.4745ZM18.4099 25.5082C18.8677 25.0503 19.2707 24.5507 19.626 24.0234L24.0961 26.626C25.9628 27.6458 26.3197 30.4116 24.775 31.8737C23.3123 33.4135 20.5433 33.0628 19.5274 31.1952C19.5274 31.1953 16.9286 26.7311 16.9286 26.7311C17.4537 26.3737 17.9508 25.9672 18.4099 25.5082Z" fill="white"/>
<path d="M13.9424 12.7752C14.6112 13.0868 15.0929 12.0943 14.4318 11.7623C11.637 10.4118 8.27981 10.9798 6.07678 13.1765C1.48467 17.7611 4.82005 25.7055 11.2506 25.6575C17.0868 25.7216 20.6807 18.9169 17.2218 14.1257C16.792 13.5281 15.8823 14.1742 16.3045 14.7767C18.0516 17.2395 17.7673 20.5835 15.6294 22.7269C13.2146 25.1357 9.28643 25.1351 6.87329 22.728C2.04916 17.7177 7.6355 9.86188 13.9424 12.7752Z" fill="white"/>
<path d="M10.8876 18.779C11.1237 18.9789 11.4792 18.9509 11.6805 18.7126L16.4654 13.0566C17.2138 13.4521 18.2378 13.3134 18.8604 12.7662L22.0155 15.0601C21.6688 16.1107 22.523 17.2432 23.626 17.2244C24.8598 17.2566 25.7223 15.8342 25.1168 14.7632L30.9385 8.52678V10.4745C30.9501 11.212 32.0512 11.2152 32.0635 10.4745V7.09949C32.0512 6.78981 31.8067 6.55021 31.501 6.53699H28.126C27.3882 6.54914 27.3853 7.64932 28.126 7.66199C28.126 7.66199 30.206 7.66199 30.206 7.66199L24.298 13.9909C23.7906 13.7553 23.1179 13.8247 22.6722 14.147L19.5274 11.8607C20.1317 10.4354 18.9911 8.7543 17.4385 8.78699C15.6587 8.73223 14.5387 10.9282 15.6046 12.332L10.8214 17.9864C10.6209 18.2231 10.6506 18.5785 10.8876 18.779ZM23.626 14.9745C24.3652 14.9876 24.3651 16.0864 23.6259 16.0995C22.8867 16.0863 22.8868 14.9875 23.626 14.9745ZM17.4385 9.91198C18.3326 9.88417 18.8919 10.9921 18.3493 11.6921C17.7459 12.5709 16.2938 12.1123 16.3135 11.0369C16.3135 10.4165 16.818 9.91198 17.4385 9.91198Z" fill="white"/>
<path d="M31.501 2.03699H10.6885C8.82739 2.03699 7.31348 3.55091 7.31348 5.41199V7.6282C7.32384 8.36837 8.43137 8.36175 8.43848 7.62817V5.41199C8.43848 4.17135 9.44784 3.16199 10.6885 3.16199H31.501C32.7419 3.16199 33.751 4.17135 33.751 5.41199V22.287C33.751 23.5279 32.7419 24.537 31.501 24.537H25.8425C25.5316 24.537 25.28 24.7886 25.28 25.0995C25.28 25.4104 25.5316 25.662 25.8425 25.662H31.501C33.3621 25.662 34.876 24.1481 34.876 22.287V5.41199C34.876 3.55091 33.3621 2.03699 31.501 2.03699Z" fill="white"/>
<path d="M25.8757 21.7245C25.1381 21.7361 25.1348 22.8372 25.8757 22.8495H32.0632C32.8008 22.8378 32.8041 21.7368 32.0632 21.7245H25.8757Z" fill="white"/>
<path d="M32.0633 19.4745H28.6883C27.9498 19.4864 27.9481 20.5872 28.6883 20.5995H32.0633C32.8017 20.5876 32.8034 19.4867 32.0633 19.4745Z" fill="white"/>
<path d="M14.6257 5.97437C15.3637 5.96221 15.3661 4.86197 14.6257 4.84937H10.1257C9.38767 4.86152 9.3853 5.96173 10.1257 5.97437H14.6257Z" fill="white"/>
</svg>
