<svg width="20" height="20" viewBox="0 0 20 20" fill="none" xmlns="http://www.w3.org/2000/svg">
<path fill-rule="evenodd" clip-rule="evenodd" d="M10 0.25C4.615 0.25 0.25 4.615 0.25 10C0.25 15.385 4.615 19.75 10 19.75C15.385 19.75 19.75 15.385 19.75 10C19.75 4.615 15.385 0.25 10 0.25ZM14.28 10.53C14.4205 10.3894 14.4993 10.1988 14.4993 10C14.4993 9.80125 14.4205 9.61063 14.28 9.47L11.28 6.47C11.2113 6.39631 11.1285 6.33721 11.0365 6.29622C10.9445 6.25523 10.8452 6.23318 10.7445 6.23141C10.6438 6.22963 10.5438 6.24816 10.4504 6.28588C10.357 6.3236 10.2722 6.37974 10.201 6.45096C10.1297 6.52218 10.0736 6.60701 10.0359 6.7004C9.99816 6.79379 9.97963 6.89382 9.98141 6.99452C9.98318 7.09522 10.0052 7.19454 10.0462 7.28654C10.0872 7.37854 10.1463 7.46134 10.22 7.53L11.94 9.25H6.25C6.05109 9.25 5.86032 9.32902 5.71967 9.46967C5.57902 9.61032 5.5 9.80109 5.5 10C5.5 10.1989 5.57902 10.3897 5.71967 10.5303C5.86032 10.671 6.05109 10.75 6.25 10.75H11.94L10.22 12.47C10.1463 12.5387 10.0872 12.6215 10.0462 12.7135C10.0052 12.8055 9.98318 12.9048 9.98141 13.0055C9.97963 13.1062 9.99816 13.2062 10.0359 13.2996C10.0736 13.393 10.1297 13.4778 10.201 13.549C10.2722 13.6203 10.357 13.6764 10.4504 13.7141C10.5438 13.7518 10.6438 13.7704 10.7445 13.7686C10.8452 13.7668 10.9445 13.7448 11.0365 13.7038C11.1285 13.6628 11.2113 13.6037 11.28 13.53L14.28 10.53Z" fill="#6140FF"/>
</svg>
