<svg width="8" height="13" viewBox="0 0 8 13" fill="none" xmlns="http://www.w3.org/2000/svg">
<path d="M7.83333 1.33337C7.83333 1.24496 7.79821 1.16018 7.7357 1.09767C7.67319 1.03515 7.58841 1.00004 7.5 1.00004H5.83333C4.99408 0.95823 4.1724 1.2503 3.54781 1.81242C2.92323 2.37455 2.54652 3.16103 2.5 4.00004V5.80004H0.833333C0.744928 5.80004 0.660143 5.83515 0.597631 5.89767C0.535119 5.96018 0.5 6.04496 0.5 6.13337V7.8667C0.5 7.95511 0.535119 8.03989 0.597631 8.1024C0.660143 8.16492 0.744928 8.20004 0.833333 8.20004H2.5V12.6667C2.5 12.7551 2.53512 12.8399 2.59763 12.9024C2.66014 12.9649 2.74493 13 2.83333 13H4.83333C4.92174 13 5.00652 12.9649 5.06904 12.9024C5.13155 12.8399 5.16667 12.7551 5.16667 12.6667V8.20004H6.91333C6.98746 8.2011 7.05983 8.17742 7.11899 8.13275C7.17815 8.08808 7.22073 8.02496 7.24 7.95337L7.72 6.22004C7.73326 6.17078 7.73505 6.11915 7.72521 6.0691C7.71538 6.01905 7.69419 5.97192 7.66328 5.93135C7.63236 5.89078 7.59255 5.85784 7.54691 5.83507C7.50127 5.81231 7.45101 5.80032 7.4 5.80004H5.16667V4.00004C5.18325 3.83502 5.26074 3.68211 5.38402 3.57116C5.50729 3.46022 5.66749 3.3992 5.83333 3.40004H7.5C7.58841 3.40004 7.67319 3.36492 7.7357 3.3024C7.79821 3.23989 7.83333 3.15511 7.83333 3.0667V1.33337Z" fill="#6140FF"/>
</svg>
