<svg width="36" height="36" viewBox="0 0 36 36" fill="none" xmlns="http://www.w3.org/2000/svg">
<g clip-path="url(#clip0_338_787)">
<path d="M18.0001 9.36857L22.2747 5.80645H27.871V0H13.9355V5.80645H18.0001V9.36857ZM15.0968 4.64516V1.16129H26.7097V4.64516H21.8545L19.1614 6.88949V4.64516H15.0968Z" fill="white"/>
<path d="M16.2578 2.32251H17.4191V3.4838H16.2578V2.32251Z" fill="white"/>
<path d="M18.5811 2.32251H23.2262V3.4838H18.5811V2.32251Z" fill="white"/>
<path d="M24.3867 2.32251H25.548V3.4838H24.3867V2.32251Z" fill="white"/>
<path d="M29.5576 34.8387L29.0881 30.1382C31.0268 29.8318 32.5161 28.153 32.5161 26.129V18.5806H30.1936V17.7783C30.1936 16.989 29.7598 16.2802 29.0623 15.9167C29.7558 15.2796 30.1936 14.3687 30.1936 13.3548V12.1935C30.1936 10.2721 28.6311 8.70966 26.7097 8.70966C24.7883 8.70966 23.2258 10.2721 23.2258 12.1935V13.3548C23.2258 14.858 24.1844 16.1378 25.5212 16.6255L22.4047 19.7419H19.1485C19.0836 18.774 18.4188 17.9302 17.4769 17.6609L15.0968 16.9816V15.9445C15.8076 15.3063 16.2581 14.3837 16.2581 13.3548V12.1935C16.2581 10.2721 14.6956 8.70966 12.7742 8.70966C10.8528 8.70966 9.29032 10.2721 9.29032 12.1935V13.3548C9.29032 14.3831 9.74083 15.3057 10.4516 15.9445V16.9821L8.07148 17.6615C7.07973 17.9441 6.3871 18.8627 6.3871 19.8947V22.0645H4.06452V25.5484H5.22581V34.8387H0V36H36V34.8387H29.5576ZM24.3871 25.5484V22.8856L28.5015 18.7711C28.7989 18.4737 28.9758 18.0743 29.0155 17.6575C29.0206 17.698 29.0323 17.7363 29.0323 17.7783V24.9677C29.0323 25.928 28.2506 26.7097 27.2903 26.7097H22.6452V25.5484H24.3871ZM22.6452 30.1935H25.6037L26.0681 34.8387H22.6452V30.1935ZM26.7706 30.1935H27.9263L28.3907 34.8387H27.235L26.7706 30.1935ZM30.1936 24.9677V19.7419H31.3548V26.129C31.3548 27.7298 30.0524 29.0322 28.4516 29.0322H22.6452V27.8709H27.2903C28.8911 27.8709 30.1936 26.5685 30.1936 24.9677ZM24.3871 13.3548V12.1935C24.3871 10.9126 25.4287 9.87095 26.7097 9.87095C27.9906 9.87095 29.0323 10.9126 29.0323 12.1935V13.3548C29.0323 14.6358 27.9906 15.6774 26.7097 15.6774C25.4287 15.6774 24.3871 14.6358 24.3871 13.3548ZM22.8856 20.9032L26.7596 17.0292C26.8809 16.9079 27.0488 16.8387 27.22 16.8387C27.5789 16.8387 27.871 17.1307 27.871 17.4896C27.871 17.6609 27.8018 17.8287 27.6804 17.9501L23.566 22.0645H17.4194C17.099 22.0645 16.8387 21.8042 16.8387 21.4839C16.8387 21.1635 17.099 20.9032 17.4194 20.9032H22.8856ZM10.4516 12.1935C10.4516 10.9126 11.4933 9.87095 12.7742 9.87095C14.0551 9.87095 15.0968 10.9126 15.0968 12.1935V13.3548C15.0968 14.6358 14.0551 15.6774 12.7742 15.6774C11.4933 15.6774 10.4516 14.6358 10.4516 13.3548V12.1935ZM12.7742 16.8387C13.1819 16.8387 13.5714 16.7644 13.9355 16.6354V17.2591C13.7915 17.4814 13.3914 18 12.7742 18C12.157 18 11.7569 17.4814 11.6129 17.2591V16.6354C11.9769 16.7644 12.3665 16.8387 12.7742 16.8387ZM7.54839 19.8947C7.54839 19.3784 7.89513 18.9197 8.39044 18.778L10.7825 18.0947C11.1193 18.5336 11.7748 19.1613 12.7742 19.1613C13.7736 19.1613 14.4291 18.5336 14.7659 18.0941L17.158 18.7774C17.6028 18.9047 17.913 19.2914 17.9751 19.7413H17.4194C16.4591 19.7413 15.6774 20.523 15.6774 21.4833C15.6774 21.6877 15.7191 21.8816 15.7843 22.0639H7.54839V19.8947ZM5.22581 23.2258H23.2258V24.3871H5.22581V23.2258ZM6.3871 27.8709H8.12903V26.7097H6.3871V25.5484H21.4839V26.7097H9.29032V27.8709H21.4839V34.8387H20.1009L18.9396 32.5161H8.93139L7.7701 34.8387H6.3871V27.8709ZM18.8024 34.8387H9.06861L9.64926 33.6774H18.2217L18.8024 34.8387Z" fill="white"/>
</g>
<defs>
<clipPath id="clip0_338_787">
<rect width="36" height="36" fill="white"/>
</clipPath>
</defs>
</svg>
