<svg width="1150" height="602" viewBox="0 0 1150 602" fill="none" xmlns="http://www.w3.org/2000/svg">
<path d="M1150 557C1150 570.978 1150 577.967 1147.72 583.48C1144.67 590.831 1138.83 596.672 1131.48 599.716C1125.97 602 1118.98 602 1105 602H55.9188C33.7504 602 22.6662 602 15.7617 598.066C6.55581 592.821 0.799182 583.109 0.616991 572.516C0.480348 564.571 5.80092 554.847 16.4421 535.399L243.762 119.954C247.402 113.302 249.222 109.976 251.651 107.315C254.889 103.767 258.931 101.048 263.438 99.3869C266.818 98.1413 270.585 97.7099 278.119 96.8472L1099.88 2.73966C1115.27 0.977732 1122.96 0.0967685 1129.07 2.03594C1137.22 4.62151 1143.88 10.5623 1147.38 18.3658C1150 24.2185 1150 31.9615 1150 47.4475V557Z" fill="#100D2C" fill-opacity="0.5"/>
</svg>
