<svg width="36" height="36" viewBox="0 0 36 36" fill="none" xmlns="http://www.w3.org/2000/svg">
<path d="M5.09048 32.5908V19.44C5.09237 19.116 5.22193 18.8057 5.45107 18.5766C5.6802 18.3475 5.99044 18.2179 6.31448 18.216H10.1377C10.2022 18.2084 10.2638 18.1847 10.3166 18.1469C10.3695 18.1091 10.412 18.0586 10.4401 18L12.6217 13.5216C12.6504 13.4766 12.6897 13.4393 12.7361 13.413C12.7825 13.3866 12.8347 13.372 12.8881 13.3704H23.0689C23.1237 13.3629 23.1795 13.3736 23.2277 13.4009C23.2758 13.4282 23.3136 13.4706 23.3353 13.5216C25.2505 16.92 28.7677 22.5648 28.3105 26.5824C28.2957 26.6241 28.2914 26.6688 28.2979 26.7125C28.3044 26.7563 28.3216 26.7977 28.3479 26.8333C28.3742 26.8688 28.4089 26.8974 28.4488 26.9164C28.4887 26.9354 28.5327 26.9444 28.5769 26.9424C29.6857 27.0936 30.9097 27.4788 30.9097 28.3824C30.9097 29.7612 27.9649 29.9124 27.0073 29.9124C26.0497 29.9124 23.0689 29.7612 23.0689 28.3824C23.0689 27.0792 25.5889 26.8524 26.7409 26.8128C26.8921 26.8128 27.0469 26.6976 27.0469 26.5824C27.5437 23.1012 24.2533 17.6652 22.6477 14.796C22.6132 14.7475 22.5671 14.7082 22.5137 14.6818C22.4603 14.6555 22.4012 14.6427 22.3417 14.6448H21.4633C21.4147 14.639 21.3654 14.6456 21.3201 14.6641C21.2747 14.6826 21.2349 14.7124 21.2042 14.7506C21.1736 14.7888 21.1532 14.8342 21.145 14.8824C21.1368 14.9307 21.141 14.9802 21.1573 15.0264C21.3481 15.7464 21.6901 16.7472 21.8053 17.514C21.8306 17.6763 21.7904 17.842 21.6935 17.9747C21.6455 18.0404 21.5851 18.096 21.5156 18.1383C21.4462 18.1807 21.369 18.2089 21.2887 18.2214C21.1264 18.2467 20.9606 18.2065 20.828 18.1096C20.6953 18.0127 20.6066 17.8671 20.5813 17.7048C20.4301 16.8264 20.0449 15.7536 19.8181 14.9112C19.7389 14.7564 19.7029 14.6448 19.5121 14.6448H13.6585C13.6043 14.642 13.5504 14.6547 13.5032 14.6815C13.456 14.7083 13.4174 14.748 13.3921 14.796L11.9521 17.7444C11.9291 17.7931 11.9187 17.8468 11.922 17.9006C11.9252 17.9543 11.942 18.0064 11.9707 18.052C11.9994 18.0976 12.0391 18.1352 12.0862 18.1613C12.1333 18.1875 12.1862 18.2013 12.2401 18.2016H13.9609C14.1208 18.203 14.2788 18.2363 14.4256 18.2996C14.5725 18.363 14.7051 18.4551 14.8158 18.5705C14.9265 18.6859 15.013 18.8223 15.0702 18.9716C15.1274 19.1209 15.1542 19.2802 15.1489 19.44V32.6304C15.1484 32.6707 15.156 32.7107 15.1712 32.7481C15.1864 32.7854 15.2089 32.8194 15.2374 32.8479C15.2659 32.8764 15.2999 32.8989 15.3372 32.9141C15.3745 32.9293 15.4146 32.9369 15.4549 32.9364H22.4965C22.5325 32.9364 22.5721 32.8968 22.6081 32.8608C22.6229 32.8458 22.6342 32.8277 22.641 32.8077C22.6479 32.7878 22.6502 32.7666 22.6477 32.7456C22.5325 32.2092 23.0077 31.5972 23.5657 31.9032C23.6671 31.9536 23.7537 32.0296 23.8168 32.1237C23.88 32.2177 23.9175 32.3266 23.9257 32.4396C23.9282 32.4789 23.945 32.5159 23.9728 32.5437C24.0006 32.5715 24.0376 32.5883 24.0769 32.5908C24.2052 32.5879 24.3335 32.6012 24.4585 32.6304C26.0033 32.9379 27.5936 32.9379 29.1385 32.6304C29.4805 32.5152 29.7109 32.6304 29.7109 32.5548C29.7099 32.4742 29.7251 32.3942 29.7555 32.3195C29.7859 32.2448 29.831 32.1769 29.888 32.1199C29.945 32.0629 30.0128 32.0179 30.0875 31.9874C30.1622 31.957 30.2422 31.9419 30.3229 31.9428C30.4158 31.9459 30.5069 31.969 30.59 32.0106C30.6731 32.0522 30.7462 32.1112 30.8043 32.1837C30.8624 32.2562 30.9042 32.3404 30.9268 32.4306C30.9493 32.5207 30.9521 32.6147 30.9349 32.706C30.8989 32.8212 30.9745 32.8968 31.0897 32.8968H33.6097C33.7643 32.9087 33.9088 32.9785 34.0143 33.0923C34.1197 33.2061 34.1782 33.3555 34.1782 33.5106C34.1782 33.6657 34.1197 33.8151 34.0143 33.929C33.9088 34.0428 33.7643 34.1126 33.6097 34.1244C23.2417 34.1604 12.8377 34.2756 2.43368 34.1244C2.27395 34.1084 2.12626 34.0324 2.02044 33.9117C1.91462 33.791 1.85856 33.6346 1.86359 33.4741C1.86862 33.3137 1.93436 33.1611 2.04753 33.0473C2.1607 32.9334 2.31287 32.8668 2.47328 32.8608C3.23648 32.8968 4.03928 32.8968 4.80608 32.8968C4.88759 32.8893 4.96635 32.8634 5.03648 32.8212C5.07816 32.7508 5.10396 32.6722 5.11208 32.5908H5.09048ZM11.7829 2.58842C11.75 2.48622 11.7451 2.37709 11.7687 2.27236C11.7923 2.16764 11.8435 2.07113 11.9169 1.99287C11.9904 1.91462 12.0835 1.85746 12.1866 1.82735C12.2896 1.79723 12.3988 1.79525 12.5029 1.82162C14.1481 2.09162 15.7933 2.35802 17.4385 2.66402C17.5913 2.67829 17.7333 2.7488 17.8371 2.86188C17.9409 2.97496 17.999 3.12255 18.0001 3.27602V3.69722C18.0001 3.92762 18.2269 4.05722 18.4573 3.96722L23.3749 1.86122C23.4795 1.81126 23.596 1.79149 23.7112 1.80413C23.8265 1.81678 23.9359 1.86134 24.0272 1.9328C24.1185 2.00426 24.188 2.09978 24.2279 2.20861C24.2679 2.31744 24.2767 2.43527 24.2533 2.54882L22.6801 8.52122C22.6655 8.60148 22.6805 8.68429 22.7222 8.7544C22.7638 8.82452 22.8294 8.87722 22.9069 8.90282C23.0535 8.93501 23.1828 9.02092 23.2693 9.14364C23.3558 9.26635 23.3933 9.41699 23.3743 9.56593C23.3554 9.71487 23.2814 9.85133 23.1669 9.94846C23.0524 10.0456 22.9057 10.0964 22.7557 10.0908H13.2769C13.1141 10.1061 12.9519 10.0561 12.826 9.95177C12.7001 9.84746 12.6208 9.69741 12.6055 9.53462C12.5902 9.37183 12.6402 9.20964 12.7445 9.08372C12.8488 8.95781 12.9989 8.87849 13.1617 8.86322C13.2059 8.86058 13.2491 8.84901 13.2887 8.82921C13.3283 8.80941 13.3635 8.78179 13.3921 8.74802C13.5433 8.48162 11.9737 3.27602 11.7829 2.58842ZM21.3481 8.64002L22.5325 4.08602C22.5496 4.02976 22.5499 3.96974 22.5334 3.91331C22.5169 3.85688 22.4843 3.80648 22.4396 3.76829C22.3949 3.73009 22.34 3.70574 22.2817 3.69824C22.2234 3.69073 22.1642 3.70038 22.1113 3.72602L17.6761 5.64842C17.5839 5.69274 17.4822 5.7134 17.38 5.70854C17.2778 5.70367 17.1785 5.67343 17.091 5.62055C17.0034 5.56767 16.9305 5.49382 16.8786 5.40566C16.8268 5.3175 16.7977 5.21782 16.7941 5.11562L16.7581 4.00322C16.7185 3.88802 16.6429 3.73682 16.4881 3.73682L13.7341 3.27602C13.6826 3.26353 13.6287 3.26529 13.5782 3.28111C13.5277 3.29693 13.4824 3.3262 13.4473 3.36579C13.4121 3.40539 13.3884 3.4538 13.3787 3.50585C13.369 3.55789 13.3736 3.6116 13.3921 3.66122L14.7601 8.64002C14.7754 8.70822 14.8148 8.76865 14.8709 8.81028C14.9271 8.85191 14.9964 8.87197 15.0661 8.86682H21.0421C21.1933 8.86682 21.3481 8.79122 21.3481 8.64002ZM12.1681 12.3084C12.0058 12.3084 11.8501 12.2439 11.7353 12.1292C11.6206 12.0144 11.5561 11.8587 11.5561 11.6964C11.5561 11.5341 11.6206 11.3784 11.7353 11.2637C11.8501 11.1489 12.0058 11.0844 12.1681 11.0844H23.8321C23.9124 11.0844 23.992 11.1002 24.0663 11.131C24.1405 11.1618 24.208 11.2068 24.2648 11.2637C24.3217 11.3205 24.3667 11.388 24.3975 11.4622C24.4282 11.5365 24.4441 11.616 24.4441 11.6964C24.4441 11.7768 24.4282 11.8564 24.3975 11.9306C24.3667 12.0049 24.3217 12.0723 24.2648 12.1292C24.208 12.186 24.1405 12.2311 24.0663 12.2618C23.992 12.2926 23.9124 12.3084 23.8321 12.3084H12.1681ZM7.30808 30.0672C7.58578 30.1291 7.83383 30.2844 8.01076 30.5072C8.18768 30.7299 8.28276 31.0067 8.28008 31.2912V31.5972C8.28517 31.6767 8.31904 31.7516 8.37536 31.8079C8.43168 31.8643 8.50659 31.8981 8.58608 31.9032H11.6821C11.7224 31.9037 11.7624 31.8961 11.7997 31.8809C11.8371 31.8657 11.871 31.8432 11.8995 31.8147C11.928 31.7862 11.9506 31.7522 11.9658 31.7149C11.981 31.6775 11.9886 31.6375 11.9881 31.5972V31.2912C11.984 31.0064 12.0786 30.7289 12.2558 30.5059C12.4329 30.2828 12.6817 30.1278 12.9601 30.0672C13.0283 30.0519 13.0887 30.0125 13.1303 29.9564C13.172 29.9002 13.192 29.8309 13.1869 29.7612V29.16C13.1903 29.1156 13.1835 29.071 13.1671 29.0296C13.1506 28.9882 13.1249 28.9512 13.0918 28.9213C13.0588 28.8914 13.0194 28.8695 12.9766 28.8572C12.9338 28.8449 12.8887 28.8426 12.8449 28.8504C12.403 28.9129 11.9869 29.0963 11.6426 29.3802C11.2983 29.6642 11.0391 30.0377 10.8937 30.4596C10.8621 30.514 10.8177 30.5598 10.7644 30.593C10.711 30.6263 10.6504 30.646 10.5877 30.6504H9.68048C9.61575 30.6557 9.55104 30.64 9.49593 30.6056C9.44081 30.5713 9.39823 30.5201 9.37448 30.4596C9.22066 30.0355 8.95393 29.6615 8.60309 29.3779C8.25224 29.0943 7.8306 28.9119 7.38368 28.8504C7.33857 28.8393 7.29146 28.8392 7.24629 28.85C7.20111 28.8608 7.15916 28.8822 7.12394 28.9125C7.08872 28.9428 7.06125 28.9811 7.04381 29.0241C7.02637 29.0672 7.01947 29.1138 7.02368 29.16V29.772C7.02725 29.8455 7.05548 29.9157 7.10381 29.9712C7.15214 30.0267 7.21775 30.0644 7.29008 30.078L7.30808 30.0672ZM7.30808 22.2588C7.58068 22.2001 7.82529 22.0506 8.00187 21.8348C8.17845 21.619 8.27654 21.3496 8.28008 21.0708V20.7108C8.28517 20.6313 8.31904 20.5564 8.37536 20.5001C8.43168 20.4438 8.50659 20.4099 8.58608 20.4048H11.6821C11.7225 20.4038 11.7628 20.4111 11.8003 20.4261C11.8379 20.4411 11.872 20.4636 11.9006 20.4922C11.9293 20.5209 11.9518 20.555 11.9668 20.5926C11.9818 20.6301 11.9891 20.6704 11.9881 20.7108V21.0708C11.9903 21.35 12.0879 21.62 12.2647 21.8361C12.4415 22.0522 12.6869 22.2013 12.9601 22.2588C13.0283 22.2742 13.0887 22.3135 13.1303 22.3697C13.172 22.4258 13.192 22.4951 13.1869 22.5648V23.1768C13.1897 23.2209 13.1825 23.2651 13.1658 23.306C13.1491 23.347 13.1233 23.3835 13.0903 23.413C13.0574 23.4425 13.0182 23.4641 12.9756 23.4762C12.9331 23.4883 12.8884 23.4906 12.8449 23.4828C12.4008 23.4279 11.9816 23.2478 11.6361 22.9634C11.2905 22.6791 11.0331 22.3024 10.8937 21.8772C10.8621 21.8229 10.8177 21.7771 10.7644 21.7438C10.711 21.7105 10.6504 21.6908 10.5877 21.6864H9.68048C9.61575 21.6811 9.55104 21.6968 9.49593 21.7312C9.44081 21.7656 9.39823 21.8168 9.37448 21.8772C9.22653 22.3046 8.96142 22.6817 8.60941 22.9656C8.2574 23.2495 7.83266 23.4287 7.38368 23.4828C7.33889 23.4938 7.29213 23.494 7.24726 23.4833C7.20239 23.4727 7.16067 23.4516 7.12553 23.4217C7.0904 23.3919 7.06285 23.3541 7.04514 23.3115C7.02744 23.269 7.02008 23.2228 7.02368 23.1768V22.5648C7.02725 22.4913 7.05548 22.4211 7.10381 22.3656C7.15214 22.3101 7.21775 22.2725 7.29008 22.2588H7.30808ZM10.1377 23.8284C10.5985 23.8348 11.0471 23.9773 11.4271 24.2381C11.8071 24.4988 12.1016 24.8661 12.2733 25.2938C12.4451 25.7214 12.4866 26.1903 12.3925 26.6415C12.2984 27.0926 12.073 27.5059 11.7447 27.8293C11.4163 28.1527 10.9996 28.3717 10.5471 28.4588C10.0945 28.546 9.62633 28.4974 9.20136 28.3191C8.77639 28.1408 8.41364 27.8408 8.15875 27.4568C7.90386 27.0728 7.76821 26.6221 7.76888 26.1612C7.77028 25.8522 7.83278 25.5466 7.95276 25.2618C8.07275 24.9771 8.24786 24.7189 8.46802 24.5021C8.68817 24.2853 8.94903 24.1141 9.23558 23.9985C9.52212 23.8829 9.8287 23.8251 10.1377 23.8284ZM10.1377 25.0524C9.85406 25.0686 9.58737 25.1926 9.39229 25.3991C9.19722 25.6056 9.08853 25.8789 9.08853 26.163C9.08853 26.4471 9.19722 26.7204 9.39229 26.9269C9.58737 27.1334 9.85406 27.2575 10.1377 27.2736C10.4213 27.2575 10.688 27.1334 10.8831 26.9269C11.0781 26.7204 11.1868 26.4471 11.1868 26.163C11.1868 25.8789 11.0781 25.6056 10.8831 25.3991C10.688 25.1926 10.4213 25.0686 10.1377 25.0524ZM24.8401 28.44C26.2598 28.782 27.7404 28.782 29.1601 28.44C29.4661 28.3608 29.6965 28.44 29.6965 28.4004C29.6965 28.3608 29.4661 28.44 29.1601 28.3248C27.7363 28.0188 26.2638 28.0188 24.8401 28.3248C24.5341 28.44 24.3433 28.3248 24.3433 28.4004C24.3433 28.476 24.5341 28.3608 24.8401 28.44ZM29.6965 30.3516C29.714 30.2706 29.7488 30.1942 29.7984 30.1278C29.8479 30.0613 29.9112 30.0062 29.9839 29.9663C30.0566 29.9264 30.137 29.9025 30.2197 29.8963C30.3024 29.8901 30.3855 29.9018 30.4633 29.9304C30.542 29.9519 30.6157 29.989 30.6798 30.0395C30.7439 30.09 30.7972 30.1529 30.8365 30.2245C30.8758 30.296 30.9003 30.3748 30.9086 30.456C30.9168 30.5372 30.9086 30.6192 30.8845 30.6972C30.5785 31.8456 27.9757 31.9968 27.0181 31.9968C26.0605 31.9968 23.5369 31.8456 23.1553 30.7728C23.1017 30.6221 23.1086 30.4566 23.1743 30.3108C23.2401 30.1651 23.3597 30.0504 23.5082 29.9908C23.6566 29.9313 23.8223 29.9315 23.9705 29.9913C24.1188 30.0512 24.2382 30.1661 24.3037 30.312C24.4189 30.582 26.7121 30.7332 27.0181 30.7332C27.2485 30.7332 29.6605 30.5424 29.6965 30.3516ZM13.9249 32.6304V19.7712C13.9249 19.6757 13.8869 19.5842 13.8194 19.5167C13.7519 19.4491 13.6604 19.4112 13.5649 19.4112H6.65648C6.6117 19.4117 6.56756 19.4219 6.52703 19.4409C6.4865 19.4599 6.45052 19.4874 6.42152 19.5216C6.39252 19.5557 6.37117 19.5956 6.35892 19.6387C6.34666 19.6817 6.34378 19.7269 6.35048 19.7712V32.5908C6.34378 32.6351 6.34666 32.6803 6.35892 32.7234C6.37117 32.7664 6.39252 32.8064 6.42152 32.8405C6.45052 32.8746 6.4865 32.9021 6.52703 32.9211C6.56756 32.9402 6.6117 32.9503 6.65648 32.9508H13.5829C13.6272 32.9581 13.6727 32.9557 13.716 32.9437C13.7593 32.9317 13.7995 32.9104 13.8338 32.8812C13.8681 32.8521 13.8956 32.8159 13.9144 32.7751C13.9332 32.7342 13.943 32.6898 13.9429 32.6448L13.9249 32.6304Z" fill="white"/>
</svg>
