<svg width="18" height="18" viewBox="0 0 18 18" fill="none" xmlns="http://www.w3.org/2000/svg">
<path d="M1.125 6.50244V12.9374C1.125 13.5342 1.36205 14.1065 1.78401 14.5284C2.20597 14.9504 2.77826 15.1874 3.375 15.1874H14.625C15.2217 15.1874 15.794 14.9504 16.216 14.5284C16.6379 14.1065 16.875 13.5342 16.875 12.9374V6.50244L10.179 10.6222C9.82443 10.8403 9.4163 10.9558 9 10.9558C8.5837 10.9558 8.17557 10.8403 7.821 10.6222L1.125 6.50244Z" fill="white"/>
<path d="M16.875 5.181V5.0625C16.875 4.46576 16.6379 3.89347 16.216 3.47151C15.794 3.04955 15.2217 2.8125 14.625 2.8125H3.375C2.77826 2.8125 2.20597 3.04955 1.78401 3.47151C1.36205 3.89347 1.125 4.46576 1.125 5.0625V5.181L8.4105 9.6645C8.58778 9.77357 8.79185 9.83132 9 9.83132C9.20815 9.83132 9.41222 9.77357 9.5895 9.6645L16.875 5.181Z" fill="white"/>
</svg>
