<svg width="16" height="16" viewBox="0 0 16 16" fill="none" xmlns="http://www.w3.org/2000/svg">
<path fill-rule="evenodd" clip-rule="evenodd" d="M0.125 2.375C0.125 1.77826 0.362053 1.20597 0.78401 0.78401C1.20597 0.362053 1.77826 0.125 2.375 0.125H3.404C4.049 0.125 4.6115 0.5645 4.76825 1.19L5.597 4.50725C5.66416 4.77575 5.65059 5.05809 5.558 5.31892C5.46542 5.57974 5.29792 5.80744 5.0765 5.9735L4.10675 6.701C4.0055 6.77675 3.98375 6.88775 4.01225 6.965C4.43553 8.11614 5.10395 9.16153 5.97121 10.0288C6.83847 10.8961 7.88386 11.5645 9.035 11.9877C9.11225 12.0162 9.2225 11.9945 9.299 11.8932L10.0265 10.9235C10.1926 10.7021 10.4203 10.5346 10.6811 10.442C10.9419 10.3494 11.2243 10.3358 11.4928 10.403L14.81 11.2318C15.4355 11.3885 15.875 11.951 15.875 12.5968V13.625C15.875 14.2217 15.6379 14.794 15.216 15.216C14.794 15.6379 14.2217 15.875 13.625 15.875H11.9375C5.414 15.875 0.125 10.586 0.125 4.0625V2.375Z" fill="white"/>
</svg>
