<svg width="16" height="16" viewBox="0 0 16 16" fill="none" xmlns="http://www.w3.org/2000/svg">
<path d="M1 5.77979V11.4998C1 12.0302 1.21071 12.5389 1.58579 12.914C1.96086 13.2891 2.46957 13.4998 3 13.4998H13C13.5304 13.4998 14.0391 13.2891 14.4142 12.914C14.7893 12.5389 15 12.0302 15 11.4998V5.77979L9.048 9.44179C8.73283 9.63569 8.37004 9.73835 8 9.73835C7.62996 9.73835 7.26717 9.63569 6.952 9.44179L1 5.77979Z" fill="#D37302"/>
<path d="M15 4.60533V4.5C15 3.96957 14.7893 3.46086 14.4142 3.08579C14.0391 2.71071 13.5304 2.5 13 2.5H3C2.46957 2.5 1.96086 2.71071 1.58579 3.08579C1.21071 3.46086 1 3.96957 1 4.5V4.60533L7.476 8.59067C7.63359 8.68762 7.81498 8.73895 8 8.73895C8.18502 8.73895 8.36641 8.68762 8.524 8.59067L15 4.60533Z" fill="#D37302"/>
</svg>
