<svg width="12" height="10" viewBox="0 0 12 10" fill="none" xmlns="http://www.w3.org/2000/svg">
<path d="M3.71317 9.66647C4.57575 9.69533 5.43535 9.55099 6.24119 9.24198C7.04703 8.93296 7.78275 8.46555 8.40486 7.86736C9.02698 7.26917 9.52288 6.55234 9.86324 5.75923C10.2036 4.96613 10.3815 4.11284 10.3865 3.2498C10.7818 2.76063 11.0753 2.19737 11.2498 1.59314C11.2629 1.5454 11.2618 1.49491 11.2468 1.44775C11.2318 1.4006 11.2035 1.35878 11.1653 1.32735C11.1271 1.29591 11.0806 1.27619 11.0314 1.27057C10.9822 1.26494 10.9325 1.27365 10.8882 1.29564C10.6814 1.39518 10.4485 1.42734 10.2225 1.38757C9.99646 1.3478 9.78859 1.23812 9.62817 1.07397C9.4234 0.849723 9.17569 0.668861 8.89973 0.542101C8.62378 0.415341 8.32518 0.345261 8.02165 0.336013C7.71811 0.326766 7.4158 0.378539 7.13264 0.488265C6.84948 0.597991 6.59122 0.763438 6.37317 0.974802C6.07462 1.26394 5.85595 1.62539 5.7384 2.02403C5.62085 2.42267 5.60843 2.84494 5.70234 3.2498C3.74817 3.36647 2.40651 2.43897 1.33317 1.1673C1.30093 1.13079 1.25875 1.10445 1.21178 1.09151C1.16482 1.07857 1.1151 1.07958 1.06871 1.09443C1.02231 1.10928 0.981238 1.13731 0.950511 1.17512C0.919784 1.21292 0.900729 1.25885 0.895674 1.3073C0.691198 2.44155 0.8387 3.6112 1.31837 4.65918C1.79804 5.70715 2.5869 6.58325 3.57901 7.1698C2.9138 7.9327 1.97963 8.40919 0.971508 8.4998C0.917498 8.50876 0.86764 8.53438 0.828913 8.57307C0.790185 8.61177 0.764525 8.66161 0.755525 8.71561C0.746525 8.76961 0.754634 8.82508 0.778718 8.87424C0.802802 8.92341 0.841656 8.96381 0.889841 8.9898C1.76689 9.4281 2.73273 9.65958 3.71317 9.66647Z" fill="#4D4C50"/>
</svg>
