<svg width="12" height="12" viewBox="0 0 12 12" fill="none" xmlns="http://www.w3.org/2000/svg">
<path d="M7.8373 3.89992C7.39021 3.89839 6.9472 3.98503 6.53363 4.15488C6.12005 4.32474 5.74403 4.57448 5.42707 4.88981C5.11011 5.20514 4.85845 5.57988 4.68647 5.99257C4.51449 6.40527 4.42557 6.84783 4.4248 7.29492V10.7249C4.4248 10.8642 4.48012 10.9977 4.57857 11.0962C4.67703 11.1946 4.81057 11.2499 4.9498 11.2499H6.1748C6.31404 11.2499 6.44758 11.1946 6.54604 11.0962C6.64449 10.9977 6.6998 10.8642 6.6998 10.7249V7.29492C6.69969 7.13591 6.73309 6.97865 6.79782 6.83341C6.86256 6.68817 6.95718 6.5582 7.07551 6.45197C7.19384 6.34575 7.33323 6.26565 7.48459 6.21691C7.63595 6.16817 7.79589 6.15188 7.95397 6.16909C8.23748 6.2048 8.49802 6.34331 8.68618 6.55835C8.87434 6.7734 8.97704 7.05002 8.9748 7.33576V10.7249C8.9748 10.8642 9.03012 10.9977 9.12857 11.0962C9.22703 11.1946 9.36057 11.2499 9.4998 11.2499H10.7248C10.864 11.2499 10.9976 11.1946 11.096 11.0962C11.1945 10.9977 11.2498 10.8642 11.2498 10.7249V7.29492C11.249 6.84783 11.1601 6.40527 10.9881 5.99257C10.8162 5.57988 10.5645 5.20514 10.2475 4.88981C9.93058 4.57448 9.55456 4.32474 9.14098 4.15488C8.72741 3.98503 8.2844 3.89839 7.8373 3.89992Z" fill="#4D4C50"/>
<path d="M2.85 4.4248H1.275C0.985051 4.4248 0.75 4.65985 0.75 4.9498V10.7248C0.75 11.0148 0.985051 11.2498 1.275 11.2498H2.85C3.13995 11.2498 3.375 11.0148 3.375 10.7248V4.9498C3.375 4.65985 3.13995 4.4248 2.85 4.4248Z" fill="#4D4C50"/>
<path d="M2.0625 3.375C2.78737 3.375 3.375 2.78737 3.375 2.0625C3.375 1.33763 2.78737 0.75 2.0625 0.75C1.33763 0.75 0.75 1.33763 0.75 2.0625C0.75 2.78737 1.33763 3.375 2.0625 3.375Z" fill="#4D4C50"/>
</svg>
