<svg width="60" height="60" viewBox="0 0 60 60" fill="none" xmlns="http://www.w3.org/2000/svg">
<path d="M24.0754 34.0146C24.2403 34.1794 24.4439 34.257 24.6573 34.257C24.8706 34.257 25.0839 34.1794 25.2391 34.0146L33.2294 26.0243L38.0876 30.8825C38.4076 31.2025 38.9312 31.2025 39.2512 30.8825L51.77 18.3637V22.3201C51.77 22.7758 52.1385 23.1443 52.5942 23.1443C53.05 23.1443 53.4185 22.7758 53.4185 22.3201V16.3661C53.4185 15.9104 53.05 15.5419 52.5942 15.5419H46.6403C46.1845 15.5419 45.8161 15.9104 45.8161 16.3661C45.8161 16.8219 46.1845 17.1904 46.6403 17.1904H50.5967L38.6694 29.1176L33.8112 24.2594C33.4912 23.9394 32.9676 23.9394 32.6476 24.2594L24.0754 32.8316C23.7554 33.171 23.7554 33.6946 24.0754 34.0146Z" fill="white"/>
<path d="M24.9575 15.0085C24.9575 12.1867 23.8521 9.52004 21.8545 7.52246C19.8569 5.52489 17.1999 4.41943 14.3684 4.41943C11.5369 4.41943 8.87994 5.52489 6.88236 7.52246C2.75145 11.6534 2.75145 18.3637 6.88236 22.4946C8.87994 24.4922 11.5369 25.5976 14.3684 25.5976C17.1999 25.5976 19.8569 24.4922 21.8545 22.4946C23.8618 20.497 24.9575 17.84 24.9575 15.0085ZM14.3781 23.9394C11.9927 23.9394 9.75266 23.0085 8.06539 21.3213C4.58418 17.84 4.58418 12.1673 8.06539 8.6861C9.75266 6.99883 11.9927 6.06792 14.3781 6.06792C16.7636 6.06792 19.0036 6.99883 20.6908 8.6861C22.3781 10.3734 23.309 12.6134 23.309 14.9988C23.309 17.3843 22.3781 19.6243 20.6908 21.3116C19.0036 23.0182 16.7636 23.9394 14.3781 23.9394Z" fill="white"/>
<path d="M14.3781 8.20117C12.555 8.20117 10.8484 8.90905 9.56838 10.1987C8.28838 11.4884 7.5708 13.1951 7.5708 15.0084C7.5708 15.4642 7.93929 15.8327 8.39504 15.8327C8.8508 15.8327 9.21929 15.4642 9.21929 15.0084C9.21929 13.6315 9.75262 12.3321 10.732 11.3624C11.7114 10.3927 13.0011 9.84966 14.3781 9.84966C14.8338 9.84966 15.2023 9.48117 15.2023 9.02541C15.2023 8.56966 14.8338 8.20117 14.3781 8.20117Z" fill="white"/>
<path d="M18.4801 43.537V32.017C18.4801 31.5612 18.1116 31.1927 17.6559 31.1927H16.8219V29.1564C23.5807 27.9927 28.7395 22.1067 28.7395 15.0182C28.7395 7.09577 22.3007 0.656982 14.3783 0.656982C6.45588 0.656982 0.0170898 7.09577 0.0170898 15.0085C0.0170898 22.097 5.17588 27.983 11.9347 29.1467V31.183H11.1007C10.8777 31.183 10.6741 31.2703 10.5189 31.4255C10.3638 31.5806 10.2765 31.794 10.2765 32.0073V43.5273C10.2765 45.7867 12.1189 47.6291 14.3783 47.6291C16.6377 47.6291 18.4801 45.7964 18.4801 43.537ZM1.66557 15.0085C1.66557 7.99759 7.36739 2.29577 14.3783 2.29577C21.3892 2.29577 27.091 7.99759 27.091 15.0085C27.091 22.0194 21.3892 27.7212 14.3783 27.7212C7.36739 27.7212 1.66557 22.0194 1.66557 15.0085ZM13.5832 29.3309C13.845 29.3406 14.1068 29.3697 14.3783 29.3697C14.6401 29.3697 14.9019 29.3406 15.1638 29.3309V31.183H13.5832V29.3309ZM16.8219 43.537C16.8219 44.8849 15.7262 45.9903 14.3686 45.9903C13.011 45.9903 11.9153 44.8946 11.9153 43.537V32.8412H12.7395H12.7492H15.988H15.9977H16.8219V43.537Z" fill="white"/>
<path d="M59.1588 57.6945H58.0921V28.6812C58.0921 28.2254 57.7236 27.8569 57.2679 27.8569H50.7709C50.3151 27.8569 49.9467 28.2254 49.9467 28.6812V57.6945H47.406V46.3394C47.406 45.8836 47.0376 45.5151 46.5818 45.5151H40.0848C39.6291 45.5151 39.2606 45.8836 39.2606 46.3394V57.6945H36.72V36.72C36.72 36.2642 36.3515 35.8957 35.8957 35.8957H29.3988C28.943 35.8957 28.5745 36.2642 28.5745 36.72V57.6945H26.0339V49.9854C26.0339 49.5297 25.6654 49.1612 25.2097 49.1612H18.7127C18.257 49.1612 17.8885 49.5297 17.8885 49.9854V57.6945H16.8218C16.366 57.6945 15.9976 58.063 15.9976 58.5188C15.9976 58.9745 16.366 59.343 16.8218 59.343H59.1588C59.6145 59.343 59.983 58.9745 59.983 58.5188C59.983 58.063 59.6145 57.6945 59.1588 57.6945ZM51.6048 29.5054H56.4436V57.6945H51.6048V29.5054ZM40.9091 47.1636H45.7479V57.6945H40.9091V47.1636ZM30.223 37.5442H35.0618V57.6945H30.223V37.5442ZM19.537 50.8097H24.3757V57.6945H19.537V50.8097Z" fill="white"/>
</svg>
