<svg width="64" height="64" viewBox="0 0 64 64" fill="none" xmlns="http://www.w3.org/2000/svg">
<path d="M57.1148 63.0303C56.8239 63.0303 56.63 62.9333 56.4361 62.7394L51.6845 57.8909H28.9936C27.927 57.8909 26.8603 57.503 26.0845 56.7273C25.3088 55.9515 24.9209 54.9818 24.9209 53.8182V35.8788C24.9209 35.297 25.3088 34.9091 25.8906 34.9091C26.4724 34.9091 26.8603 35.297 26.8603 35.8788V53.9151C26.8603 54.497 27.0542 54.9818 27.4421 55.3697C27.83 55.7576 28.3148 55.9515 28.8967 55.9515H52.0724C52.3633 55.9515 52.5573 56.0485 52.7512 56.2424L56.1451 59.7333V56.9212C56.1451 56.4364 56.63 55.9515 57.1148 55.9515H58.9573C59.5391 55.9515 60.0239 55.7576 60.4118 55.3697C60.7997 54.9818 60.9936 54.4 60.9936 53.9151V34.8121C60.9936 33.6485 60.0239 32.6788 58.8603 32.6788H31.4179C30.8361 32.6788 30.4482 32.2909 30.4482 31.7091C30.4482 31.1273 30.8361 30.7394 31.4179 30.7394H59.0542C61.2845 30.7394 63.127 32.5818 63.127 34.8121V53.8182C63.127 54.8848 62.7391 55.9515 61.9633 56.7273C61.1876 57.503 60.2179 57.8909 59.0542 57.8909H58.1815L58.0845 62.0606C58.0845 62.4485 57.7936 62.8364 57.5027 62.9333C57.3088 62.9333 57.2118 63.0303 57.1148 63.0303Z" fill="white"/>
<path d="M3.20003 37.6243C2.90912 37.6243 2.71518 37.5273 2.52124 37.3334C2.3273 37.1394 2.23033 36.7515 2.23033 36.4606L3.68488 28.8C1.93942 25.9879 0.969727 22.6909 0.969727 19.297C0.969727 9.21215 9.21215 0.969727 19.297 0.969727C29.3818 0.969727 37.6243 9.21215 37.6243 19.297C37.6243 29.3818 29.3818 37.6243 19.297 37.6243C16.7758 37.6243 14.2546 37.1394 11.9273 36.0728L3.39397 37.6243C3.297 37.6243 3.297 37.6243 3.20003 37.6243ZM12.0243 34.0364C12.1212 34.0364 12.3152 34.0364 12.4122 34.1334C14.6425 35.1031 16.8728 35.6849 19.297 35.6849C28.3152 35.6849 35.6849 28.3152 35.6849 19.297C35.6849 10.2788 28.3152 2.90912 19.297 2.90912C10.2788 2.90912 2.90912 10.2788 2.90912 19.297C2.90912 22.4 3.78185 25.5031 5.5273 28.1212C5.62427 28.3152 5.72124 28.6061 5.62427 28.8L4.36367 35.394L11.7334 34.0364H12.0243Z" fill="white"/>
<path d="M13.1878 55.9516C13.0908 55.9516 12.8969 55.9516 12.7999 55.9516C11.5393 55.7576 10.6666 54.594 10.6666 53.3334V52.7516C10.6666 50.8122 11.9272 49.0667 13.6726 48.5819C14.5454 48.3879 15.0302 47.5152 14.8363 46.6425C14.6423 45.9637 14.0605 45.4788 13.3817 45.4788C12.606 45.4788 12.0242 45.9637 11.8302 46.3516C11.3454 47.4182 10.0848 48.097 8.92113 47.8061C8.14537 47.6122 7.46658 47.1273 7.17567 46.4485C6.7878 45.7697 6.7878 44.897 7.17567 44.2182C7.95143 42.5697 9.40598 41.3091 11.1514 40.7273C12.8969 40.1455 14.8363 40.2425 16.5817 41.1152C17.9393 41.794 19.006 42.9576 19.5878 44.4122C20.3636 46.2546 20.2666 48.291 19.4908 50.0364C18.7151 51.5879 17.5514 52.7516 15.9029 53.4303V53.3334C15.9029 54.1091 15.612 54.7879 15.0302 55.2728C14.3514 55.7576 13.7696 55.9516 13.1878 55.9516ZM13.0908 54.0122C13.3817 54.0122 13.5757 53.9152 13.6726 53.9152C13.8666 53.8182 13.8666 53.6243 13.8666 53.4303C13.8666 52.4607 13.8666 51.7819 14.6423 51.6849C15.9999 51.297 16.9696 50.3273 17.5514 49.1637C18.1333 47.9031 18.1333 46.4485 17.6484 45.091C17.2605 44.1213 16.4848 43.2485 15.5151 42.7637C14.2545 42.0849 12.8969 41.9879 11.6363 42.4728C10.3757 42.8607 9.30901 43.8304 8.82416 44.994C8.72719 45.1879 8.72719 45.3819 8.82416 45.5758C8.92113 45.6728 9.0181 45.8667 9.30901 45.9637C9.59992 46.0607 9.89083 45.8667 10.0848 45.5758C10.6666 44.3152 12.0242 43.4425 13.4787 43.5394C15.0302 43.6364 16.3878 44.7031 16.7757 46.2546C17.2605 48.194 16.0969 50.0364 14.2545 50.5213C13.3817 50.8122 12.7029 51.6849 12.7029 52.8485V53.4303C12.509 53.6243 12.7999 53.9152 13.0908 54.0122Z" fill="white"/>
<path d="M13.1877 63.0303C11.5392 63.0303 10.1816 61.6727 10.1816 60.0243C10.1816 58.3758 11.5392 57.0182 13.1877 57.0182C14.8362 57.0182 16.1938 58.3758 16.1938 60.0243C16.1938 61.6727 14.8362 63.0303 13.1877 63.0303ZM13.1877 58.8606C12.6059 58.8606 12.121 59.3455 12.121 59.9273C12.121 60.5091 12.6059 60.9939 13.1877 60.9939C13.7695 60.9939 14.2544 60.5091 14.2544 59.9273C14.2544 59.3455 13.7695 58.8606 13.1877 58.8606Z" fill="white"/>
<path d="M53.3337 22.4C52.7519 22.4 52.364 22.0121 52.364 21.4303V20.2667C52.364 18.3273 53.1397 16.5818 54.5943 15.1273C55.9519 13.7697 56.7276 12.0243 56.7276 10.0849C56.7276 8.14548 55.9519 6.30305 54.4973 4.94548C53.0428 3.5879 51.2003 2.90911 49.261 3.00608C45.5761 3.20002 42.667 6.20608 42.57 9.79396C42.4731 11.8303 43.2488 13.7697 44.7034 15.1273C46.1579 16.4849 46.9337 18.3273 46.9337 20.2667V21.5273C46.9337 22.1091 46.5458 22.497 45.964 22.497C45.3822 22.497 44.9943 22.1091 44.9943 21.5273V20.2667C44.9943 18.9091 44.4125 17.5515 43.3458 16.5818C41.5034 14.8364 40.5337 12.3152 40.6307 9.79396C40.8246 5.13941 44.6064 1.3576 49.261 1.16366C51.7822 1.06669 54.1094 1.93941 55.9519 3.68487C57.7943 5.43032 58.764 7.7576 58.764 10.1818C58.764 12.6061 57.7943 14.9334 56.0488 16.5818C54.9822 17.6485 54.4003 19.0061 54.4003 20.3637V21.5273C54.3034 22.0121 53.8185 22.4 53.3337 22.4Z" fill="white"/>
<path d="M53.1401 25.503H46.1583C44.8977 25.503 43.8311 24.4364 43.8311 23.1758V22.6909C43.8311 21.4303 44.8977 20.3636 46.1583 20.3636H53.1401C54.4008 20.3636 55.4674 21.4303 55.4674 22.6909V23.1758C55.3704 24.4364 54.4008 25.503 53.1401 25.503ZM46.1583 22.4C45.9644 22.4 45.7704 22.594 45.7704 22.7879V23.2727C45.7704 23.4667 45.9644 23.6606 46.1583 23.6606H53.1401C53.3341 23.6606 53.528 23.4667 53.528 23.2727V22.7879C53.528 22.594 53.3341 22.4 53.1401 22.4H46.1583Z" fill="white"/>
<path d="M49.5516 28.703C47.4183 28.703 45.6729 27.0545 45.6729 24.9212V24.5333C45.6729 23.9515 46.0607 23.5636 46.6425 23.5636C47.2244 23.5636 47.6122 23.9515 47.6122 24.5333V24.9212C47.6122 25.8909 48.388 26.7636 49.4547 26.7636C50.5213 26.7636 51.3941 25.9878 51.3941 24.9212V24.5333C51.3941 23.9515 51.7819 23.5636 52.3638 23.5636C52.9456 23.5636 53.3335 23.9515 53.3335 24.5333V24.9212C53.3335 27.0545 51.588 28.703 49.5516 28.703Z" fill="white"/>
<path d="M49.6484 22.4C49.0666 22.4 48.6787 22.0121 48.6787 21.4303V14.7394C48.6787 14.4485 48.7757 14.2546 48.9696 14.0606L50.909 12.1212C51.2969 11.7334 51.8787 11.7334 52.2666 12.1212C52.6545 12.5091 52.6545 13.0909 52.2666 13.4788L50.6181 15.1273V21.4303C50.6181 22.0121 50.1333 22.4 49.6484 22.4Z" fill="white"/>
<path d="M49.6483 15.7091C49.3574 15.7091 49.1635 15.6121 48.9696 15.4182L47.0302 13.4788C46.6423 13.0909 46.6423 12.5091 47.0302 12.1212C47.418 11.7334 47.9999 11.7334 48.3877 12.1212L50.3271 14.0606C50.715 14.4485 50.715 15.0303 50.3271 15.4182C50.1332 15.6121 49.9393 15.7091 49.6483 15.7091Z" fill="white"/>
<path d="M19.2971 22.497C17.3577 22.497 15.8062 21.0424 15.6123 19.2L14.9335 11.2485C14.8365 9.9879 15.2244 8.82427 16.0971 7.85457C16.9699 6.88487 18.1335 6.40002 19.3941 6.40002C20.6547 6.40002 21.7214 6.7879 22.4971 7.7576C23.3699 8.63033 23.7577 9.89093 23.6608 11.1515L22.982 19.1031C22.788 21.0424 21.2365 22.497 19.2971 22.497ZM19.2971 8.24245C18.6183 8.24245 17.9396 8.53336 17.4547 9.01821C16.9699 9.50305 16.7759 10.1818 16.7759 10.8606L17.4547 18.8121C17.5517 19.6849 18.3274 20.3637 19.2002 20.3637C20.0729 20.3637 20.8486 19.6849 20.9456 18.8121L21.6244 10.8606C21.7214 10.1818 21.4305 9.50305 20.9456 9.01821C20.6547 8.53336 19.9759 8.24245 19.2971 8.24245Z" fill="white"/>
<path d="M19.2969 32.291C17.3575 32.291 15.709 30.6425 15.709 28.7031C15.709 26.7637 17.3575 25.1152 19.2969 25.1152C21.2363 25.1152 22.8847 26.7637 22.8847 28.7031C22.8847 30.6425 21.2363 32.291 19.2969 32.291ZM19.2969 27.0546C18.4241 27.0546 17.6484 27.8304 17.6484 28.7031C17.6484 29.5758 18.4241 30.3516 19.2969 30.3516C20.1696 30.3516 20.9453 29.5758 20.9453 28.7031C20.9453 27.8304 20.1696 27.0546 19.2969 27.0546Z" fill="white"/>
<path d="M43.9276 37.6243H31.2246C30.6428 37.6243 30.2549 37.2365 30.2549 36.6546C30.2549 36.0728 30.6428 35.6849 31.2246 35.6849H43.9276C44.5094 35.6849 44.8973 36.0728 44.8973 36.6546C44.8973 37.2365 44.5094 37.6243 43.9276 37.6243Z" fill="white"/>
<path d="M56.6306 42.7637H31.2246C30.6428 42.7637 30.2549 42.3759 30.2549 41.794C30.2549 41.2122 30.6428 40.8243 31.2246 40.8243H56.6306C57.2125 40.8243 57.6003 41.2122 57.6003 41.794C57.6003 42.3759 57.2125 42.7637 56.6306 42.7637Z" fill="white"/>
<path d="M56.6306 47.9031H31.2246C30.6428 47.9031 30.2549 47.5153 30.2549 46.9334C30.2549 46.3516 30.6428 45.9637 31.2246 45.9637H56.6306C57.2125 45.9637 57.6003 46.3516 57.6003 46.9334C57.6003 47.5153 57.2125 47.9031 56.6306 47.9031Z" fill="white"/>
<path d="M56.6306 52.9455H31.2246C30.6428 52.9455 30.2549 52.5576 30.2549 51.9758C30.2549 51.394 30.6428 51.0061 31.2246 51.0061H56.6306C57.2125 51.0061 57.6003 51.394 57.6003 51.9758C57.6003 52.5576 57.2125 52.9455 56.6306 52.9455Z" fill="white"/>
</svg>
