<svg width="56" height="50" viewBox="0 0 56 50" fill="none" xmlns="http://www.w3.org/2000/svg">
<path d="M54.2764 40.0899H52.9117V20.274C52.9117 19.8779 52.5509 19.5672 52.1184 19.5672H47.404C46.9618 19.5672 46.6107 19.8779 46.6107 20.274V40.0906H43.4733V24.37C43.4733 23.9953 43.1126 23.6845 42.68 23.6845H37.9656C37.5354 23.6845 37.1842 23.9953 37.1842 24.37V40.0899H34.0349V34.2666C34.0349 33.8726 33.6838 33.5811 33.2536 33.5811H28.5272C28.0946 33.5811 27.7459 33.8726 27.7459 34.2666V40.0899H24.9932V30.8582L28.5392 29.6294C29.0771 30.2531 29.9279 30.6918 30.8832 30.6918C32.5177 30.6918 33.837 29.5057 33.837 28.0493C33.837 27.5082 33.6502 27.0104 33.335 26.5951L39.063 20.6886C39.4477 20.855 39.8683 20.9588 40.3248 20.9588C41.9449 20.9588 43.2762 19.7748 43.2762 18.3398C43.2762 18.1528 43.2522 17.965 43.2067 17.7986L47.6035 15.7826C48.1414 16.3025 48.9108 16.6346 49.764 16.6346C51.3865 16.6346 52.7154 15.4484 52.7154 13.9942C52.7154 12.5592 51.3865 11.373 49.764 11.373C48.1414 11.373 46.8102 12.5592 46.8102 13.9942C46.8102 14.1812 46.8341 14.369 46.882 14.5354L42.4829 16.5514C42.3416 16.4063 42.1796 16.2811 42.0168 16.1979V9.41891C41.9928 9.06691 41.7829 8.92043 41.7829 8.92043L31.9782 0.18727C31.7452 -0.0146851 31.4427 0.000247852 31.4427 0.000247852H3.96396C3.53139 0.000247852 3.18262 0.313137 3.18262 0.687892V45.5156C3.18262 45.9117 3.53139 46.2225 3.96396 46.2225H41.2211C41.6632 46.2225 42.0144 45.9117 42.0144 45.5156V41.5035H54.2756C54.7082 41.5035 55.0594 41.1906 55.0594 40.7967C55.0602 40.4006 54.709 40.0899 54.2764 40.0899ZM49.7624 12.7682C50.5198 12.7682 51.1391 13.3279 51.1391 13.9949C51.1391 14.6804 50.5206 15.2216 49.7624 15.2216C49.0026 15.2216 48.3856 14.6804 48.3856 13.9949C48.3856 13.3286 49.0026 12.7682 49.7624 12.7682ZM38.7461 25.0769H41.8979V40.0899H38.7461V25.0769ZM29.3189 34.9734H32.4587V40.0899H29.3189V34.9734ZM30.8816 29.276C30.1362 29.276 29.5169 28.737 29.5169 28.0493C29.5169 27.3851 30.1354 26.8226 30.8816 26.8226C31.6534 26.8226 32.2607 27.3844 32.2607 28.0493C32.2599 28.737 31.6534 29.276 30.8816 29.276ZM40.3232 19.5672C39.5634 19.5672 38.9441 19.0054 38.9441 18.3405C38.9441 17.6529 39.5626 17.1138 40.3232 17.1138C41.0806 17.1138 41.6999 17.6529 41.6999 18.3405C41.6991 19.0047 41.0806 19.5672 40.3232 19.5672ZM39.3311 8.71207H32.2121V2.39243L39.3311 8.71207ZM40.4373 44.8294H4.7461V1.39403H30.6382V9.41891C30.6382 9.815 30.987 10.1258 31.4315 10.1258H40.4381V15.7194C40.4046 15.7194 40.3687 15.7002 40.3232 15.7002C38.7006 15.7002 37.3694 16.8842 37.3694 18.3405C37.3694 18.8817 37.5562 19.3794 37.8714 19.7947L32.1434 25.6799C31.7587 25.5348 31.3381 25.431 30.8816 25.431C29.2615 25.431 27.9422 26.615 27.9422 28.05C27.9422 28.1332 27.9661 28.2371 27.9661 28.3203L24.9908 29.3613V13.9949C24.9908 13.6202 24.6396 13.3073 24.2071 13.3073C23.7649 13.3073 23.4138 13.6202 23.4138 13.9949V40.7967C23.4138 41.1906 23.7649 41.5035 24.2071 41.5035H40.4373V44.8294ZM48.1877 40.0899V20.9595H51.3251V40.0899H48.1877Z" fill="#6140FF"/>
<path d="M19.3542 13.3073H9.06748C8.6373 13.3073 8.28613 13.6201 8.28613 13.9949C8.28613 14.3889 8.6373 14.7017 9.06748 14.7017H19.3542C19.7868 14.7017 20.1476 14.3889 20.1476 13.9949C20.1476 13.6201 19.7868 13.3073 19.3542 13.3073Z" fill="#6140FF"/>
<path d="M14.5656 18.1934H9.06748C8.6373 18.1934 8.28613 18.5276 8.28613 18.9002C8.28613 19.2963 8.6373 19.607 9.06748 19.607H14.5656C14.9982 19.607 15.3589 19.2963 15.3589 18.9002C15.3589 18.5276 14.9982 18.1934 14.5656 18.1934Z" fill="#6140FF"/>
<path d="M9.13535 24.5151H17.7932C18.2258 24.5151 18.5745 24.183 18.5745 23.8083C18.5745 23.4335 18.2258 23.1014 17.7932 23.1014H9.13535C8.70278 23.1014 8.354 23.4335 8.354 23.8083C8.354 24.183 8.70278 24.5151 9.13535 24.5151Z" fill="#6140FF"/>
<path d="M19.3559 28.0088H9.13535C8.70278 28.0088 8.354 28.3195 8.354 28.7156C8.354 29.1096 8.70278 29.4225 9.13535 29.4225H19.3559C19.7884 29.4225 20.1492 29.1096 20.1492 28.7156C20.1492 28.3203 19.7884 28.0088 19.3559 28.0088Z" fill="#6140FF"/>
<path d="M16.2185 32.9148H9.13535C8.70278 32.9148 8.354 33.2277 8.354 33.6216C8.354 33.9964 8.70278 34.3306 9.13535 34.3306H16.2185C16.6487 34.3306 16.9999 33.9964 16.9999 33.6216C16.9999 33.2277 16.6487 32.9148 16.2185 32.9148Z" fill="#6140FF"/>
<path d="M36.712 49.0591H4.07512C1.82766 49.0591 0 47.43 0 45.4282V3.54803C0 3.15549 0.357551 2.83691 0.798104 2.83691C1.23866 2.83691 1.59621 3.15549 1.59621 3.54803V45.4282C1.59621 46.6463 2.70877 47.6369 4.07512 47.6369H36.7128C37.1533 47.6369 37.5109 47.9555 37.5109 48.348C37.5109 48.7406 37.1533 49.0591 36.712 49.0591Z" fill="#6140FF"/>
</svg>
