<svg width="12" height="12" viewBox="0 0 12 12" fill="none" xmlns="http://www.w3.org/2000/svg">
<path fill-rule="evenodd" clip-rule="evenodd" d="M6 0.3125C2.85875 0.3125 0.3125 2.85875 0.3125 6C0.3125 9.14125 2.85875 11.6875 6 11.6875C9.14125 11.6875 11.6875 9.14125 11.6875 6C11.6875 2.85875 9.14125 0.3125 6 0.3125ZM6.4375 2.5C6.4375 2.38397 6.39141 2.27269 6.30936 2.19064C6.22731 2.10859 6.11603 2.0625 6 2.0625C5.88397 2.0625 5.77269 2.10859 5.69064 2.19064C5.60859 2.27269 5.5625 2.38397 5.5625 2.5V6C5.5625 6.2415 5.7585 6.4375 6 6.4375H8.625C8.74103 6.4375 8.85231 6.39141 8.93436 6.30936C9.01641 6.22731 9.0625 6.11603 9.0625 6C9.0625 5.88397 9.01641 5.77269 8.93436 5.69064C8.85231 5.60859 8.74103 5.5625 8.625 5.5625H6.4375V2.5Z" fill="#D37302"/>
</svg>
