<svg width="7" height="12" viewBox="0 0 7 12" fill="none" xmlns="http://www.w3.org/2000/svg">
<path d="M6.91667 1.0417C6.91667 0.964343 6.88594 0.890157 6.83124 0.835458C6.77654 0.78076 6.70236 0.750031 6.625 0.750031H5.16667C4.43232 0.713451 3.71335 0.96901 3.16684 1.46087C2.62033 1.95273 2.29071 2.6409 2.25 3.37503V4.95003H0.791667C0.714312 4.95003 0.640125 4.98076 0.585427 5.03546C0.530729 5.09016 0.5 5.16434 0.5 5.2417V6.75837C0.5 6.83572 0.530729 6.90991 0.585427 6.9646C0.640125 7.0193 0.714312 7.05003 0.791667 7.05003H2.25V10.9584C2.25 11.0357 2.28073 11.1099 2.33543 11.1646C2.39013 11.2193 2.46431 11.25 2.54167 11.25H4.29167C4.36902 11.25 4.44321 11.2193 4.49791 11.1646C4.5526 11.1099 4.58333 11.0357 4.58333 10.9584V7.05003H6.11167C6.17653 7.05096 6.23985 7.03025 6.29162 6.99116C6.34338 6.95207 6.38064 6.89684 6.3975 6.8342L6.8175 5.31753C6.8291 5.27444 6.83066 5.22925 6.82206 5.18546C6.81346 5.14167 6.79491 5.10043 6.76787 5.06493C6.74082 5.02943 6.70598 5.00061 6.66605 4.98069C6.62611 4.96077 6.58213 4.95028 6.5375 4.95003H4.58333V3.37503C4.59784 3.23064 4.66565 3.09685 4.77351 2.99977C4.88138 2.90269 5.02155 2.8493 5.16667 2.85003H6.625C6.70236 2.85003 6.77654 2.8193 6.83124 2.7646C6.88594 2.70991 6.91667 2.63572 6.91667 2.55836V1.0417Z" fill="#4D4C50"/>
</svg>
