<svg width="18" height="16" viewBox="0 0 18 16" fill="none" xmlns="http://www.w3.org/2000/svg">
<path d="M1.6875 8.57C1.6875 9.77 2.52975 10.8155 3.71775 10.9903C4.533 11.1103 5.3565 11.2025 6.1875 11.267V14.75L9.2445 11.693C9.45182 11.487 9.73009 11.3681 10.0222 11.3608C11.4483 11.3213 12.8708 11.1976 14.2822 10.9903C15.4702 10.8155 16.3125 9.77075 16.3125 8.56925V4.05575C16.3125 2.85425 15.4702 1.8095 14.2822 1.63475C12.5332 1.37804 10.7678 1.24944 9 1.25C7.206 1.25 5.442 1.38125 3.71775 1.63475C2.52975 1.8095 1.6875 2.855 1.6875 4.05575V8.56925V8.57Z" stroke="#D37302" stroke-width="1.5" stroke-linecap="round" stroke-linejoin="round"/>
</svg>
