<svg width="6" height="8" viewBox="0 0 6 8" fill="none" xmlns="http://www.w3.org/2000/svg">
<path d="M5.08333 0.458356C5.08333 0.403102 5.06138 0.350112 5.02231 0.311042C4.98324 0.271972 4.93025 0.250022 4.875 0.250022H3.83333C3.3088 0.223893 2.79525 0.406435 2.40488 0.757764C2.01452 1.10909 1.77908 1.60065 1.75 2.12502V3.25002H0.708333C0.65308 3.25002 0.60009 3.27197 0.561019 3.31104C0.521949 3.35011 0.5 3.4031 0.5 3.45836V4.54169C0.5 4.59694 0.521949 4.64993 0.561019 4.689C0.60009 4.72807 0.65308 4.75002 0.708333 4.75002H1.75V7.54169C1.75 7.59694 1.77195 7.64993 1.81102 7.689C1.85009 7.72807 1.90308 7.75002 1.95833 7.75002H3.20833C3.26359 7.75002 3.31658 7.72807 3.35565 7.689C3.39472 7.64993 3.41667 7.59694 3.41667 7.54169V4.75002H4.50833C4.55466 4.75069 4.59989 4.73589 4.63687 4.70797C4.67384 4.68005 4.70046 4.6406 4.7125 4.59586L5.0125 3.51252C5.02079 3.48174 5.0219 3.44947 5.01576 3.41818C5.00961 3.3869 4.99637 3.35745 4.97705 3.33209C4.95773 3.30674 4.93285 3.28615 4.90432 3.27192C4.87579 3.25769 4.84438 3.2502 4.8125 3.25002H3.41667V2.12502C3.42703 2.02189 3.47546 1.92632 3.55251 1.85698C3.62956 1.78764 3.72968 1.7495 3.83333 1.75002H4.875C4.93025 1.75002 4.98324 1.72807 5.02231 1.689C5.06138 1.64993 5.08333 1.59694 5.08333 1.54169V0.458356Z" fill="white"/>
</svg>
