<svg width="20" height="20" viewBox="0 0 20 20" fill="none" xmlns="http://www.w3.org/2000/svg">
<path d="M7 10.75L9.25 13L13 7.75M19 10C19 11.268 18.37 12.39 17.407 13.068C17.5108 13.6608 17.4701 14.2698 17.2886 14.8436C17.107 15.4173 16.7899 15.9388 16.364 16.364C15.9388 16.7899 15.4173 17.107 14.8436 17.2886C14.2698 17.4701 13.6608 17.5108 13.068 17.407C12.7222 17.8995 12.2629 18.3014 11.7288 18.5787C11.1948 18.856 10.6017 19.0005 10 19C8.732 19 7.61 18.37 6.932 17.407C6.33923 17.5107 5.73021 17.47 5.15649 17.2885C4.58276 17.1069 4.06122 16.7898 3.636 16.364C3.21013 15.9388 2.89298 15.4173 2.71142 14.8436C2.52987 14.2698 2.48925 13.6608 2.593 13.068C2.10052 12.7222 1.69862 12.2629 1.42133 11.7288C1.14403 11.1948 0.999511 10.6017 1 10C1 8.732 1.63 7.61 2.593 6.932C2.48925 6.33923 2.52987 5.73019 2.71142 5.15645C2.89298 4.58271 3.21013 4.06117 3.636 3.636C4.06122 3.21019 4.58276 2.8931 5.15649 2.71154C5.73021 2.52999 6.33923 2.48933 6.932 2.593C7.27785 2.10058 7.73722 1.69873 8.27126 1.42144C8.80529 1.14415 9.39827 0.999595 10 1C11.268 1 12.39 1.63 13.068 2.593C13.6608 2.48933 14.2698 2.52999 14.8435 2.71154C15.4172 2.8931 15.9388 3.21019 16.364 3.636C16.7898 4.06122 17.1069 4.58276 17.2885 5.15649C17.47 5.73021 17.5107 6.33923 17.407 6.932C17.8995 7.27779 18.3014 7.73715 18.5787 8.2712C18.856 8.80525 19.0005 9.39825 19 10Z" stroke="white" stroke-width="1.5" stroke-linecap="round" stroke-linejoin="round"/>
</svg>
