<svg width="8" height="8" viewBox="0 0 8 8" fill="none" xmlns="http://www.w3.org/2000/svg">
<path d="M5.3125 2.5C4.99315 2.4989 4.67671 2.56079 4.3813 2.68211C4.08589 2.80344 3.8173 2.98182 3.5909 3.20706C3.36451 3.4323 3.18474 3.69997 3.0619 3.99475C2.93906 4.28953 2.87555 4.60564 2.875 4.925V7.375C2.875 7.47445 2.91451 7.56984 2.98484 7.64016C3.05516 7.71049 3.15054 7.75 3.25 7.75H4.125C4.22446 7.75 4.31984 7.71049 4.39016 7.64016C4.46049 7.56984 4.5 7.47445 4.5 7.375V4.925C4.49992 4.81142 4.52377 4.69909 4.57001 4.59535C4.61625 4.4916 4.68384 4.39877 4.76836 4.32289C4.85288 4.24702 4.95245 4.18981 5.06056 4.15499C5.16868 4.12018 5.28292 4.10854 5.39583 4.12083C5.59834 4.14634 5.78444 4.24528 5.91884 4.39888C6.05324 4.55248 6.1266 4.75007 6.125 4.95417V7.375C6.125 7.47445 6.16451 7.56984 6.23483 7.64016C6.30516 7.71049 6.40054 7.75 6.5 7.75H7.375C7.47446 7.75 7.56984 7.71049 7.64017 7.64016C7.71049 7.56984 7.75 7.47445 7.75 7.375V4.925C7.74945 4.60564 7.68594 4.28953 7.5631 3.99475C7.44026 3.69997 7.26049 3.4323 7.0341 3.20706C6.8077 2.98182 6.53911 2.80344 6.2437 2.68211C5.94829 2.56079 5.63185 2.4989 5.3125 2.5Z" fill="white"/>
<path d="M1.75 2.875H0.625C0.417893 2.875 0.25 3.04289 0.25 3.25V7.375C0.25 7.58211 0.417893 7.75 0.625 7.75H1.75C1.95711 7.75 2.125 7.58211 2.125 7.375V3.25C2.125 3.04289 1.95711 2.875 1.75 2.875Z" fill="white"/>
<path d="M1.1875 2.125C1.70527 2.125 2.125 1.70527 2.125 1.1875C2.125 0.669733 1.70527 0.25 1.1875 0.25C0.669733 0.25 0.25 0.669733 0.25 1.1875C0.25 1.70527 0.669733 2.125 1.1875 2.125Z" fill="white"/>
</svg>
